<?xml version="1.0" encoding="utf-8"?>
<!-- Generator: Adobe Illustrator 19.0.0, SVG Export Plug-In . SVG Version: 6.00 Build 0)  -->
<svg version="1.1" id="Layer_1" xmlns="http://www.w3.org/2000/svg" xmlns:xlink="http://www.w3.org/1999/xlink" x="0px" y="0px"
	 viewBox="-155 223.6 200 66.4" style="enable-background:new -155 223.6 200 66.4;" xml:space="preserve">
<style type="text/css">
	.st0{fill:#FF3573;}
	.st1{fill:#675872;}
</style>
<g>
	<path class="st0" d="M-126.5,289.5c-11.5-1.1-25.8-11.8-27.7-28.5c-2-17.8,9.9-32.5,24.8-36.1c9-2.1,17.6-0.8,25.5,4
		c7.1,4.4,12,10.8,14.2,18.9c4.9,17.5-4.9,31.7-14.6,37.2c0.6-0.6,1.3-1.1,1.9-1.7c1.3-1.3,2.7-2.6,3.9-4.1c1.1-1.4,2.2-2.8,3.2-4.3
		c1.7-2.6,2.9-5.4,3.8-8.4c1.1-3.6,1.6-7.2,1.5-10.9c-0.2-5.3-1.7-10.3-4.4-14.9c-2-3.4-4.7-6.3-7.9-8.8c-2.1-1.6-4.3-2.9-6.7-3.9
		c-2.8-1.2-5.8-2-8.9-2.3c-2.8-0.3-5.7-0.2-8.5,0.2c-2.4,0.4-4.7,1.1-7,2c-4.7,2-8.7,4.9-12,8.9c-3.3,3.9-5.5,8.4-6.6,13.4
		c-0.7,3.1-0.9,6.2-0.7,9.3c0.3,3.7,1.3,7.3,2.8,10.7c0.9,2,1.9,3.9,3.2,5.6c0.9,1.3,1.9,2.6,3,3.7c2.6,2.7,5.5,5,8.8,6.7
		c2.3,1.2,4.6,2.1,7.1,2.8C-127.4,289.2-126.9,289.4-126.5,289.5z"/>
	<path class="st0" d="M-104.8,244.5c-10,1-17.6,5.7-22.2,14.7c-4.6,9-3.9,17.9,1.1,26.7c-0.7-0.5-1.4-0.9-2.1-1.4
		c-3-2.3-5-5.2-6.5-8.6c-1-2.3-1.7-4.7-2.1-7.1c-0.4-2.5-0.5-5.1-0.3-7.6c0.3-3,0.9-5.9,2.1-8.6c1.1-2.5,2.5-4.7,4.2-6.7
		c2.1-2.3,4.4-4.3,7.2-5.8c1.2-0.6,2.4-1.1,3.6-1.7c0.5-0.2,1.1-0.3,1.6-0.5c-9.1,4-14.7,11-16.6,20.6c-1.9,9.7,0.6,18.3,7.2,25.7
		c-3.4-4.9-4.4-10.4-3.8-16.3c0.6-5.9,2.8-11.1,6.9-15.4C-119.1,246.8-112.5,244.5-104.8,244.5z"/>
	<path class="st0" d="M-106.3,256.3c0.2,0,0.4-0.1,0.5-0.2c0.4-0.1,0.8-0.2,1.3-0.3c-0.2,0.7-0.3,1.4-0.5,2.1
		c-1.1,3.8-3,7.2-5.6,10.1c-0.8,0.9-1.7,1.7-2.6,2.5c-0.4,0.3-0.5,0.7-0.6,1.1c-0.7,2.9-0.8,5.8-0.6,8.7c0.1,1.8,0.5,3.5,0.7,5.2
		c-0.5-0.4-1.5-3.4-2-6.2c-0.4-2.2-0.3-4.4,0-6.7c-0.4,0.3-0.7,0.5-1.1,0.7c-1,0.6-2,1.2-3,1.7c-1.4,0.6-2.8,0.4-4.1-0.5
		c-2.2-1.4-3.9-3.3-5.3-5.6c0-0.1-0.1-0.1-0.1-0.3c0.8,0.7,1.6,1.4,2.4,2c1.2,0.9,2.3,1.7,3.5,2.4c1.3,0.8,2.7,0.8,4,0
		c1.4-0.9,2.7-1.8,4-2.8c2.7-2.2,5-4.7,6.6-7.8C-107.6,260.5-106.8,258.5-106.3,256.3z"/>
	<path class="st0" d="M-103.8,248.4c-0.1,1.8-0.1,3.5-0.2,5.4c1.1-0.1,2.3-0.3,3.5-0.4v0.1c-0.6,0.2-1.3,0.5-1.9,0.7
		c-3.5,1.1-7.2,1.5-10.9,1.3c-0.5,0-1.1-0.1-1.6-0.2c-0.1,0-0.3-0.2-0.3-0.2c0-0.6,0-1.2,0-1.8c1.2,0.2,2.2,0.4,3.3,0.5
		c1.9,0.1,3.8,0.1,5.7,0.2c0.1,0,0.4-0.2,0.4-0.3c0.1-1,0.2-2.1,0.3-3.1c0-0.4-0.2-0.4-0.4-0.4c-1.5,0-3,0-4.5,0.1
		c-1.3,0.1-2.7,0.3-4,0.5c-1,0.1-2.1,0.4-3.1,0.6c-0.2,0-0.3,0-0.6,0.1C-116.5,249.8-107.3,247.7-103.8,248.4z"/>
	<path class="st1" d="M-117.1,265.8c-0.5,0.5-1.1,1-1.7,1.5c-0.5,0.4-1.2,0.6-1.9,0.7c-0.3,0-0.6,0.1-0.9,0c-0.7,0-1.4-0.1-2-0.4
		c-0.2-0.1-0.4-0.2-0.5-0.3c-0.5-0.5-1.1-0.9-1.6-1.4c0.6-0.2,0.9-0.6,1.3-1c0.4-0.3,0.7-0.6,1.2-0.7s0.9-0.2,1.3,0.2
		c0.1,0.1,0.2,0.1,0.3,0.2c0.2,0.1,0.3,0.1,0.5,0c0.1,0,0.1-0.1,0.2-0.1c0.5-0.4,1.2-0.4,1.7-0.1c0.5,0.3,0.9,0.6,1.3,1
		C-117.6,265.4-117.3,265.6-117.1,265.8z"/>
	<g>
		<path class="st1" d="M-67.6,271.9l-5.2-8.7h-2.9v8.7H-80v-23.3h8.6c2.5,0,4.4,0.7,5.8,2.1c1.4,1.4,2,3.1,2,5.2
			c0,3-1.6,5.7-4.9,6.8l5.8,9.2H-67.6z M-75.6,252.6v6.7h3.9c2.6,0,3.9-1.5,3.9-3.4s-1.3-3.3-3.4-3.3H-75.6z"/>
		<path class="st1" d="M-58,257c1.7-1.7,3.9-2.6,6.6-2.6s4.8,0.9,6.5,2.6c1.7,1.7,2.6,3.8,2.6,6.3s-0.8,4.7-2.6,6.4
			c-1.7,1.7-3.9,2.6-6.5,2.6c-2.7,0-4.8-0.8-6.6-2.6c-1.7-1.7-2.5-3.9-2.5-6.4S-59.7,258.7-58,257z M-47.9,259.7
			c-1-1-2.1-1.5-3.5-1.5s-2.6,0.5-3.5,1.5c-1,1-1.4,2.2-1.4,3.6c0,1.4,0.5,2.7,1.4,3.7c1,1,2.1,1.5,3.5,1.5s2.6-0.5,3.5-1.5
			c1-1,1.4-2.2,1.4-3.7C-46.4,261.9-46.9,260.7-47.9,259.7z"/>
		<path class="st1" d="M-13.2,256.3c1.3,1.3,1.9,3,1.9,5.3v10.3h-4.1v-9.5c0-2.8-1.4-4.2-3.5-4.2c-2.3,0-3.9,1.7-3.9,4.4v9.4H-27
			v-9.5c0-2.7-1.4-4.3-3.6-4.3c-2.3,0-4,1.7-4,4.4v9.4h-4.1v-17.2h4v2.5c1-1.8,3-2.9,5.2-2.9c2.2,0,4.2,1.1,5.1,3
			c1.2-1.9,3.5-3,6.1-3C-16.2,254.3-14.5,255-13.2,256.3z"/>
		<path class="st1" d="M-5.2,257c1.7-1.7,3.9-2.6,6.6-2.6c2.7,0,4.8,0.9,6.5,2.6c1.7,1.7,2.6,3.8,2.6,6.3s-0.8,4.7-2.6,6.4
			c-1.7,1.7-3.9,2.6-6.5,2.6c-2.7,0-4.8-0.8-6.6-2.6c-1.7-1.7-2.5-3.9-2.5-6.4C-7.8,260.8-6.9,258.7-5.2,257z M4.9,259.7
			c-1-1-2.1-1.5-3.5-1.5s-2.6,0.5-3.5,1.5c-1,1-1.4,2.2-1.4,3.6c0,1.4,0.5,2.7,1.4,3.7c1,1,2.1,1.5,3.5,1.5S4,268,4.9,267
			s1.4-2.2,1.4-3.7C6.3,261.9,5.9,260.7,4.9,259.7z"/>
		<path class="st1" d="M14.2,271.9v-17.1h4v2.4c0.9-1.7,2.9-2.8,5.4-2.8c1.9,0,3.5,0.6,4.7,1.9c1.3,1.2,1.9,3,1.9,5.2v10.4h-4.1
			v-9.3c0-2.9-1.5-4.5-3.7-4.5c-2.4,0-4.1,1.9-4.1,4.6v9.2H14.2z"/>
		<path class="st1" d="M34.2,250.2c0-1.5,1.2-2.6,2.6-2.6c1.5,0,2.6,1.1,2.6,2.6s-1.1,2.6-2.6,2.6S34.2,251.7,34.2,250.2z
			 M38.9,271.9h-4.1v-17.1h4.1V271.9z"/>
	</g>
</g>
</svg>
