<?xml version="1.0" encoding="UTF-8"?>
<svg version="1.1" xmlns="http://www.w3.org/2000/svg" width="630" height="630">
<path d="M0 0 C207.9 0 415.8 0 630 0 C630 207.9 630 415.8 630 630 C422.1 630 214.2 630 0 630 C0 422.1 0 214.2 0 0 Z " fill="#5554C7" transform="translate(0,0)"/>
<path d="M0 0 C1.41345703 -0.01836914 1.41345703 -0.01836914 2.85546875 -0.03710938 C16.14858415 -0.06468845 27.26028358 3.58003693 37.08203125 12.828125 C46.66390333 23.89399639 48.11329332 38.11976225 47.125 52.1875 C45.56663732 62.98646639 41.93352741 72.37897259 34.125 80.1875 C28.21951173 84.42201531 22.12457863 87.29461784 15.125 89.1875 C14.53050049 89.35878418 13.93600098 89.53006836 13.32348633 89.70654297 C-1.07800594 92.85711929 -18.15491828 91.10771616 -30.75 83.4375 C-40.08175663 76.566866 -45.45747559 67.55168634 -47.875 56.1875 C-48.12129247 52.64909819 -48.10616265 49.1086319 -48.125 45.5625 C-48.145625 44.61503906 -48.16625 43.66757812 -48.1875 42.69140625 C-48.24937424 31.38388888 -45.00144555 21.14526104 -37.5625 12.5 C-25.75227278 2.33771146 -15.51572577 0.01052627 0 0 Z " fill="#FBFCFE" transform="translate(236.875,319.8125)"/>
<path d="M0 0 C9.57 0 19.14 0 29 0 C29.33 11.55 29.66 23.1 30 35 C42.72592205 21.6805167 42.72592205 21.6805167 53.1652832 6.69848633 C54.87355217 3.75252596 56.22753443 2.01059077 59 0 C64.96197118 -1.51649954 71.35487129 -0.84264038 77.4375 -0.5625 C79.13986835 -0.51731298 80.84235163 -0.47625573 82.54492188 -0.43945312 C86.69946844 -0.3406872 90.848466 -0.18566221 95 0 C94.07244479 1.26684465 93.14060522 2.53055294 92.20703125 3.79296875 C91.42936401 4.84907349 91.42936401 4.84907349 90.63598633 5.92651367 C89.09428218 7.88050462 87.48296176 9.59286341 85.6875 11.3125 C81.86872647 15.00510259 78.60614744 19.06909348 75.29296875 23.21484375 C72.4686915 26.64535427 69.4382097 29.8478119 66.3359375 33.02734375 C64.75874129 34.87427677 64.75874129 34.87427677 65.29516602 36.90991211 C66.48677163 40.44345408 68.59187299 43.48270558 70.5625 46.625 C71.03486084 47.38901123 71.50722168 48.15302246 71.99389648 48.94018555 C73.65753599 51.62996065 75.32859867 54.31504145 77 57 C79.49848286 61.02025367 81.99323755 65.04275116 84.48239136 69.06878662 C85.54876821 70.79033157 86.62006064 72.50874732 87.69165039 74.22705078 C88.35156982 75.29294434 89.01148926 76.35883789 89.69140625 77.45703125 C90.28123291 78.40553955 90.87105957 79.35404785 91.47875977 80.33129883 C92.90746943 82.83767426 94.00424348 85.29653179 95 88 C71.02163103 91.25328367 71.02163103 91.25328367 62 88 C54.42651111 82.0779311 51.28376248 72.74110754 48 64 C47.4150579 62.77320569 46.81338115 61.55389935 46.1796875 60.3515625 C45 58 45 58 45 56 C42.68687105 57.81170229 40.37447123 59.62432139 38.0625 61.4375 C37.40314453 61.95376953 36.74378906 62.47003906 36.06445312 63.00195312 C35.43603516 63.49501953 34.80761719 63.98808594 34.16015625 64.49609375 C33.57886963 64.95169678 32.99758301 65.4072998 32.39868164 65.87670898 C31.02763998 66.93617627 31.02763998 66.93617627 30 68 C29.84344973 69.48638992 29.74933057 70.97949127 29.68359375 72.47265625 C29.64548584 73.28226807 29.60737793 74.09187988 29.56811523 74.92602539 C29.50346069 76.47858032 29.50346069 76.47858032 29.4375 78.0625 C29.293125 81.341875 29.14875 84.62125 29 88 C19.43 88 9.86 88 0 88 C0 58.96 0 29.92 0 0 Z " fill="#FAFBFE" transform="translate(440,321)"/>
<path d="M0 0 C8.91 -0.061875 17.82 -0.12375 27 -0.1875 C31.19783203 -0.22846802 31.19783203 -0.22846802 35.48046875 -0.27026367 C37.71614145 -0.27903133 39.95181897 -0.2866746 42.1875 -0.29296875 C43.90743164 -0.3159906 43.90743164 -0.3159906 45.66210938 -0.33947754 C56.33788612 -0.3429467 62.96958177 2.00142222 70.7890625 9.49609375 C77.03998783 16.57532191 77.66149371 24.15994137 77.3828125 33.375 C76.51858085 41.55874456 73.29439494 48.61511978 67 54 C58.32133386 59.6901116 50.95794766 60.8038097 40.75 60.375 C36.5425 60.25125 32.335 60.1275 28 60 C28 69.24 28 78.48 28 88 C18.76 88 9.52 88 0 88 C0 58.96 0 29.92 0 0 Z " fill="#FCFCFE" transform="translate(299,321)"/>
<path d="M0 0 C28.38 0 56.76 0 86 0 C86 7.59 86 15.18 86 23 C76.43 23 66.86 23 57 23 C57 44.45 57 65.9 57 88 C47.76 88 38.52 88 29 88 C29 66.55 29 45.1 29 23 C19.43 23 9.86 23 0 23 C0 15.41 0 7.82 0 0 Z " fill="#FBFCFE" transform="translate(94,321)"/>
<path d="M0 0 C9.21620214 8.66005201 10.82353723 15.47514733 11.23828125 27.70703125 C11.60784986 48.41631227 11.60784986 48.41631227 7 58 C6.71125 58.76183594 6.4225 59.52367187 6.125 60.30859375 C3.83952678 65.86923171 0.35705115 68.43697553 -5 71 C-11.71062245 73.23687415 -22.1500699 73.39097689 -28.625 70.4375 C-32.44302127 68.07032682 -35.55613733 64.75836456 -38 61 C-38 60.34 -38 59.68 -38 59 C-38.66 59 -39.32 59 -40 59 C-45.43206899 43.91630844 -46.99269211 24.64826466 -40.3125 9.625 C-36.73224422 3.44448546 -32.6906165 -0.81868127 -25.75 -2.9375 C-16.71116188 -4.9186152 -7.90648727 -5.43931697 0 0 Z " fill="#FB575A" transform="translate(528,235)"/>
<path d="M0 0 C7.26 0 14.52 0 22 0 C22 8.91 22 17.82 22 27 C25.96 27 29.92 27 34 27 C34 18.09 34 9.18 34 0 C40.93 0 47.86 0 55 0 C55.02255209 9.63113018 55.0409157 19.26224295 55.05181217 28.89339352 C55.05704074 33.36505549 55.06413789 37.83669853 55.07543945 42.30834961 C55.08626929 46.62011973 55.09227704 50.93187159 55.09487724 55.24365425 C55.09673132 56.89236298 55.1003516 58.54107066 55.10573006 60.18977165 C55.11294178 62.49103872 55.11399089 64.7922294 55.11352539 67.09350586 C55.115746 68.4058873 55.11796661 69.71826874 55.12025452 71.07041931 C55 74 55 74 54 75 C52.5112814 75.08669432 51.018555 75.10703494 49.52734375 75.09765625 C48.71773193 75.09515869 47.90812012 75.09266113 47.07397461 75.09008789 C46.03893799 75.08098389 45.00390137 75.07187988 43.9375 75.0625 C40.658125 75.041875 37.37875 75.02125 34 75 C33.505 62.13 33.505 62.13 33 49 C29.37 48.67 25.74 48.34 22 48 C22.00785522 49.21901001 22.00785522 49.21901001 22.01586914 50.46264648 C22.03656994 54.12092322 22.04963803 57.77918767 22.0625 61.4375 C22.07087891 62.71689453 22.07925781 63.99628906 22.08789062 65.31445312 C22.09272461 67.13686523 22.09272461 67.13686523 22.09765625 68.99609375 C22.10551147 70.68496704 22.10551147 70.68496704 22.11352539 72.40795898 C22 75 22 75 21 76 C19.5112814 76.08669432 18.018555 76.10703494 16.52734375 76.09765625 C15.62822266 76.09443359 14.72910156 76.09121094 13.80273438 76.08789062 C12.38444336 76.07532227 12.38444336 76.07532227 10.9375 76.0625 C9.98810547 76.05798828 9.03871094 76.05347656 8.06054688 76.04882812 C5.70696935 76.0370011 3.35351523 76.02052025 1 76 C-0.49282393 73.01435214 -0.11916977 70.31016282 -0.11352539 66.97998047 C-0.11367142 66.25792419 -0.11381744 65.53586792 -0.1139679 64.79193115 C-0.11327007 62.40031959 -0.10548375 60.00878549 -0.09765625 57.6171875 C-0.09579161 55.96094811 -0.09436792 54.30470816 -0.09336853 52.64846802 C-0.08954699 48.28532392 -0.07971978 43.922213 -0.06866455 39.55908203 C-0.05844264 35.10840301 -0.05386924 30.65771863 -0.04882812 26.20703125 C-0.0380972 17.47133722 -0.02050332 8.73567656 0 0 Z " fill="#FC575A" transform="translate(260,232)"/>
<path d="M0 0 C15.18 0 30.36 0 46 0 C46 5.94 46 11.88 46 18 C45 19 45 19 42.59155273 19.11352539 C41.54942627 19.10828857 40.5072998 19.10305176 39.43359375 19.09765625 C38.30888672 19.09443359 37.18417969 19.09121094 36.02539062 19.08789062 C34.84138672 19.07951172 33.65738281 19.07113281 32.4375 19.0625 C31.24962891 19.05798828 30.06175781 19.05347656 28.83789062 19.04882812 C25.89187774 19.03699675 22.94596319 19.02051287 20 19 C20 21.97 20 24.94 20 28 C28.58 28 37.16 28 46 28 C46 33.94 46 39.88 46 46 C37.42 46 28.84 46 20 46 C20 49.3 20 52.6 20 56 C28.58 56 37.16 56 46 56 C46 61.94 46 67.88 46 74 C30.82 74 15.64 74 0 74 C0 49.58 0 25.16 0 0 Z " fill="#FB575A" transform="translate(323,232)"/>
<path d="M0 0 C9.24 0 18.48 0 28 0 C28 29.04 28 58.08 28 88 C18.76 88 9.52 88 0 88 C0 58.96 0 29.92 0 0 Z " fill="#FDFDFE" transform="translate(392,321)"/>
<path d="M0 0 C6.6 0 13.2 0 20 0 C20 17.82 20 35.64 20 54 C32.87 54.495 32.87 54.495 46 55 C46 61.27 46 67.54 46 74 C30.82 74 15.64 74 0 74 C0 49.58 0 25.16 0 0 Z " fill="#FC5759" transform="translate(431,232)"/>
<path d="M0 0 C2.81256281 -0.02684312 5.62487241 -0.04676188 8.4375 -0.0625 C9.23994141 -0.07087891 10.04238281 -0.07925781 10.86914062 -0.08789062 C12.91295221 -0.0965143 14.95683902 -0.0522815 17 0 C18.65297909 1.65297909 18.16692183 3.61036555 18.20532227 5.88696289 C18.22526749 6.92796646 18.24521271 7.96897003 18.26576233 9.04151917 C18.28247482 10.1737944 18.29918732 11.30606964 18.31640625 12.47265625 C18.33718735 13.62543564 18.35796844 14.77821503 18.37937927 15.96592712 C18.44499964 19.66472157 18.50381755 23.36358959 18.5625 27.0625 C18.60567335 29.56315879 18.64928724 32.06381001 18.69335938 34.56445312 C18.80152633 40.70956096 18.90050702 46.854721 19 53 C31.87 53.495 31.87 53.495 45 54 C45.020625 56.949375 45.04125 59.89875 45.0625 62.9375 C45.071604 63.86812256 45.08070801 64.79874512 45.09008789 65.75756836 C45.09258545 66.48596924 45.09508301 67.21437012 45.09765625 67.96484375 C45.10289307 68.7137085 45.10812988 69.46257324 45.11352539 70.23413086 C45 72 45 72 44 73 C42.65455673 73.09785341 41.30407437 73.12797985 39.95507812 73.12939453 C39.09748901 73.13254669 38.2398999 73.13569885 37.35632324 73.13894653 C36.42404907 73.1369223 35.4917749 73.13489807 34.53125 73.1328125 C33.10528503 73.13424759 33.10528503 73.13424759 31.6505127 73.13571167 C29.63631118 73.13639357 27.62210748 73.13453862 25.60791016 73.13037109 C22.51329645 73.12502298 19.4188279 73.13031577 16.32421875 73.13671875 C14.37239551 73.13605797 12.42057236 73.13477681 10.46875 73.1328125 C9.07033875 73.13584885 9.07033875 73.13584885 7.64367676 73.13894653 C6.78608765 73.13579437 5.92849854 73.13264221 5.04492188 73.12939453 C4.28626831 73.12859894 3.52761475 73.12780334 2.74597168 73.12698364 C1 73 1 73 0 72 C-0.09436529 69.76070114 -0.11742327 67.5183825 -0.11352539 65.27709961 C-0.11367142 64.5746965 -0.11381744 63.8722934 -0.1139679 63.14860535 C-0.11326872 60.81648722 -0.10547617 58.484448 -0.09765625 56.15234375 C-0.09579208 54.53951562 -0.09436818 52.92668693 -0.09336853 51.31385803 C-0.08954323 47.06084643 -0.07971285 42.80786876 -0.06866455 38.55487061 C-0.05845069 34.2182257 -0.05387096 29.88157533 -0.04882812 25.54492188 C-0.03809059 17.02993231 -0.02101403 8.51497037 0 0 Z " fill="#FE5658" transform="translate(378,233)"/>
<path d="M0 0 C5.16671324 2.4051941 8.4478897 6.04042051 11.08984375 11.078125 C12.36786068 15.1809433 12.32912494 19.03989108 12.3125 23.3125 C12.32861328 24.12912109 12.34472656 24.94574219 12.36132812 25.78710938 C12.36688303 32.75851123 11.18137217 38.35939158 6.625 43.875 C1.41699086 48.0910074 -3.45308215 48.50774613 -9.98828125 48.37109375 C-14.51102007 47.81381724 -17.90418197 46.37725603 -21 43 C-25.18267239 36.90245964 -25.61838566 31.24125604 -25.5 24 C-25.51546875 23.05382812 -25.5309375 22.10765625 -25.546875 21.1328125 C-25.5125882 14.94404572 -24.57516522 10.14018165 -21 5 C-14.55269513 -0.9867831 -8.55002164 -0.70114073 0 0 Z " fill="#5555C7" transform="translate(243,341)"/>
<path d="M0 0 C10.28669162 -0.35369713 19.34376635 1.72700834 27.7265625 7.78125 C30.34822195 11.3392164 30.79595736 14.78358233 30.4765625 19.15625 C27.83093482 24.54926026 24.15179736 28.05126169 18.6015625 30.34375 C6.64756558 33.4517892 -7.4072099 34.22500323 -18.5234375 28.15625 C-23.03722623 24.47152451 -25.16023614 21.56245898 -26.0234375 15.84375 C-25.34130949 10.81305589 -23.38907448 8.35512413 -19.5234375 5.15625 C-13.3095594 1.36841639 -7.13625186 0.44187318 0 0 Z " fill="#F5F6FD" transform="translate(202.5234375,278.84375)"/>
<path d="M0 0 C6.14621364 3.51212208 10.00836689 6.87028434 12.0625 13.75 C12.98916185 20.09406961 13.28148295 25.88865716 9.5 31.3125 C5.27120222 36.06238186 -0.13914752 39.40674148 -6.57421875 39.98828125 C-14.1200009 40.17185342 -19.79881899 39.6134746 -25.46484375 34.32421875 C-30.61191003 28.5505531 -31.39695139 23.17674279 -31.25 15.69140625 C-30.65782505 10.11755953 -28.14963988 6.64751395 -24 2.9375 C-17.05781386 -2.02120438 -8.06912325 -3.24538364 0 0 Z " fill="#F7F9FD" transform="translate(115.9375,236.25)"/>
<path d="M0 0 C3.63 0 7.26 0 11 0 C11 15.84 11 31.68 11 48 C7.37 48 3.74 48 0 48 C0 42.06 0 36.12 0 30 C-6.6 30 -13.2 30 -20 30 C-20 27.03 -20 24.06 -20 21 C-13.4 21 -6.8 21 0 21 C0 19.35 0 17.7 0 16 C-6.6 16 -13.2 16 -20 16 C-20 13.03 -20 10.06 -20 7 C-13.4 7 -6.8 7 0 7 C0 4.69 0 2.38 0 0 Z " fill="#F8FAFE" transform="translate(221,230)"/>
<path d="M0 0 C3.96 0 7.92 0 12 0 C12 7.59 12 15.18 12 23 C15.63 23 19.26 23 23 23 C23 26.3 23 29.6 23 33 C19.37 33 15.74 33 12 33 C12 41.58 12 50.16 12 59 C8.04 59 4.08 59 0 59 C0 39.53 0 20.06 0 0 Z " fill="#F4F7FD" transform="translate(136,230)"/>
<path d="M0 0 C7.26 0 14.52 0 22 0 C22 8.91 22 17.82 22 27 C25.96 27 29.92 27 34 27 C34 18.09 34 9.18 34 0 C40.93 0 47.86 0 55 0 C55.02255209 9.63113018 55.0409157 19.26224295 55.05181217 28.89339352 C55.05704074 33.36505549 55.06413789 37.83669853 55.07543945 42.30834961 C55.08626929 46.62011973 55.09227704 50.93187159 55.09487724 55.24365425 C55.09673132 56.89236298 55.1003516 58.54107066 55.10573006 60.18977165 C55.11294178 62.49103872 55.11399089 64.7922294 55.11352539 67.09350586 C55.115746 68.4058873 55.11796661 69.71826874 55.12025452 71.07041931 C55 74 55 74 54 75 C52.5112814 75.08669432 51.018555 75.10703494 49.52734375 75.09765625 C48.71773193 75.09515869 47.90812012 75.09266113 47.07397461 75.09008789 C46.03893799 75.08098389 45.00390137 75.07187988 43.9375 75.0625 C40.658125 75.041875 37.37875 75.02125 34 75 C33.505 62.13 33.505 62.13 33 49 C29.37 48.67 25.74 48.34 22 48 C22.00785522 49.21901001 22.00785522 49.21901001 22.01586914 50.46264648 C22.03656994 54.12092322 22.04963803 57.77918767 22.0625 61.4375 C22.07087891 62.71689453 22.07925781 63.99628906 22.08789062 65.31445312 C22.09272461 67.13686523 22.09272461 67.13686523 22.09765625 68.99609375 C22.10551147 70.68496704 22.10551147 70.68496704 22.11352539 72.40795898 C22 75 22 75 21 76 C19.5112814 76.08669432 18.018555 76.10703494 16.52734375 76.09765625 C15.62822266 76.09443359 14.72910156 76.09121094 13.80273438 76.08789062 C12.38444336 76.07532227 12.38444336 76.07532227 10.9375 76.0625 C9.98810547 76.05798828 9.03871094 76.05347656 8.06054688 76.04882812 C5.70696935 76.0370011 3.35351523 76.02052025 1 76 C-0.49282393 73.01435214 -0.11916977 70.31016282 -0.11352539 66.97998047 C-0.11367142 66.25792419 -0.11381744 65.53586792 -0.1139679 64.79193115 C-0.11327007 62.40031959 -0.10548375 60.00878549 -0.09765625 57.6171875 C-0.09579161 55.96094811 -0.09436792 54.30470816 -0.09336853 52.64846802 C-0.08954699 48.28532392 -0.07971978 43.922213 -0.06866455 39.55908203 C-0.05844264 35.10840301 -0.05386924 30.65771863 -0.04882812 26.20703125 C-0.0380972 17.47133722 -0.02050332 8.73567656 0 0 Z M3 1 C3 24.76 3 48.52 3 73 C8.61 73 14.22 73 20 73 C20.09087891 70.20208984 20.09087891 70.20208984 20.18359375 67.34765625 C20.2679781 64.9192621 20.35262714 62.49087713 20.4375 60.0625 C20.47681641 58.83080078 20.51613281 57.59910156 20.55664062 56.33007812 C20.59853516 55.16025391 20.64042969 53.99042969 20.68359375 52.78515625 C20.72025146 51.70113525 20.75690918 50.61711426 20.79467773 49.50024414 C21 47 21 47 22 46 C24.5327765 45.92679837 27.03103918 45.90772431 29.5625 45.9375 C32.016875 45.958125 34.47125 45.97875 37 46 C37 54.25 37 62.5 37 71 C44.22893427 73.41208169 44.22893427 73.41208169 53 73 C53 49.24 53 25.48 53 1 C47.39 1 41.78 1 36 1 C36 9.91 36 18.82 36 28 C25.16015625 28.09765625 25.16015625 28.09765625 22 28 C20.22509454 26.22509454 20.76500027 23.62215098 20.68359375 21.21484375 C20.64169922 20.04501953 20.59980469 18.87519531 20.55664062 17.66992188 C20.51732422 16.43822266 20.47800781 15.20652344 20.4375 13.9375 C20.39431641 12.70193359 20.35113281 11.46636719 20.30664062 10.19335938 C20.20015889 7.12905159 20.09953935 4.06454115 20 1 C14.39 1 8.78 1 3 1 Z " fill="#AD5992" transform="translate(260,232)"/>
<path d="M0 0 C3.96 0 7.92 0 12 0 C12 10.56 12 21.12 12 32 C21.9 31.01 31.8 30.02 42 29 C42.495 33.95 42.495 33.95 43 39 C33.10376197 40.69950884 23.66687638 41.25686892 13.625 41.125 C9.12875 41.08375 4.6325 41.0425 0 41 C0 27.47 0 13.94 0 0 Z " fill="#F5F7FE" transform="translate(169,234)"/>
<path d="M0 0 C3.63 0 7.26 0 11 0 C11 5.61 11 11.22 11 17 C25.19 17 39.38 17 54 17 C54 19.97 54 22.94 54 26 C36.18 26 18.36 26 0 26 C0 17.42 0 8.84 0 0 Z " fill="#FCFDFE" transform="translate(96,283)"/>
<path d="M0 0 C1.39895508 -0.01836914 1.39895508 -0.01836914 2.82617188 -0.03710938 C4.16325195 -0.04000977 4.16325195 -0.04000977 5.52734375 -0.04296875 C6.348396 -0.04707764 7.16944824 -0.05118652 8.01538086 -0.05541992 C10.0625 0.1875 10.0625 0.1875 12.0625 2.1875 C12.30300903 4.44009399 12.30300903 4.44009399 12.28955078 7.27978516 C12.28939972 8.34073395 12.28924866 9.40168274 12.28909302 10.49478149 C12.27877045 11.64376923 12.26844788 12.79275696 12.2578125 13.9765625 C12.2549826 15.15012299 12.25215271 16.32368347 12.24923706 17.5328064 C12.23801355 21.29280662 12.21290492 25.05257139 12.1875 28.8125 C12.17747301 31.3567674 12.16834668 33.90103852 12.16015625 36.4453125 C12.13976604 42.69287272 12.10062082 48.93992182 12.0625 55.1875 C20.3125 55.1875 28.5625 55.1875 37.0625 55.1875 C37.0625 62.7775 37.0625 70.3675 37.0625 78.1875 C21.2225 78.1875 5.3825 78.1875 -10.9375 78.1875 C-10.97760881 59.0110326 -10.97760881 59.0110326 -10.98632812 50.86523438 C-10.99231642 45.2971095 -10.99941634 39.729001 -11.01293945 34.16088867 C-11.02376886 29.67405454 -11.02977695 25.18723796 -11.03237724 20.70039177 C-11.0342314 18.98469707 -11.03785182 17.26900338 -11.04323006 15.55331612 C-11.05044121 13.15865087 -11.05149091 10.76405904 -11.05102539 8.36938477 C-11.05462067 7.65297318 -11.05821594 6.93656158 -11.06192017 6.19844055 C-11.04486491 -1.8568857 -6.9569239 0.00478797 0 0 Z M-8.9375 3.1875 C-8.96062504 12.55785938 -8.97841591 21.92820901 -8.98931217 31.29859066 C-8.99454065 35.64918459 -9.00163765 39.99975907 -9.01293945 44.3503418 C-9.02376959 48.54540258 -9.0297771 52.74044459 -9.03237724 56.93551826 C-9.03423126 58.53956968 -9.03785144 60.14362003 -9.04323006 61.7476635 C-9.05044219 63.98666515 -9.05149087 66.2255883 -9.05102539 68.46459961 C-9.053246 69.74145126 -9.05546661 71.01830292 -9.05775452 72.33384705 C-9.26418089 75.08638855 -9.26418089 75.08638855 -7.9375 76.1875 C-6.59205673 76.28535341 -5.24157437 76.31547985 -3.89257812 76.31689453 C-3.03498901 76.32004669 -2.1773999 76.32319885 -1.29382324 76.32644653 C0.10458801 76.32341019 0.10458801 76.32341019 1.53125 76.3203125 C2.48189331 76.32126923 3.43253662 76.32222595 4.4119873 76.32321167 C6.42618882 76.32389357 8.44039252 76.32203862 10.45458984 76.31787109 C13.54920355 76.31252298 16.6436721 76.31781577 19.73828125 76.32421875 C21.69010449 76.32355797 23.64192764 76.32227681 25.59375 76.3203125 C26.52602417 76.32233673 27.45829834 76.32436096 28.41882324 76.32644653 C29.27641235 76.32329437 30.13400146 76.32014221 31.01757812 76.31689453 C32.15555847 76.31570114 32.15555847 76.31570114 33.31652832 76.31448364 C35.09127312 76.37671087 35.09127312 76.37671087 36.0625 75.1875 C36.14881874 73.84482587 36.16956473 72.49775678 36.16015625 71.15234375 C36.15765869 70.42394287 36.15516113 69.69554199 36.15258789 68.94506836 C36.14348389 68.0144458 36.13437988 67.08382324 36.125 66.125 C36.104375 63.175625 36.08375 60.22625 36.0625 57.1875 C23.1925 56.6925 23.1925 56.6925 10.0625 56.1875 C10.00191406 52.44535156 9.94132812 48.70320313 9.87890625 44.84765625 C9.81717338 41.24029401 9.75376229 37.63296493 9.69018555 34.02563477 C9.64675994 31.51036504 9.60509071 28.99506437 9.56518555 26.47973633 C9.50766707 22.87311456 9.44392033 19.26664969 9.37890625 15.66015625 C9.36219376 14.52788101 9.34548126 13.39560577 9.32826233 12.22901917 C9.30831711 11.18801559 9.28837189 10.14701202 9.26782227 9.07446289 C9.24450584 7.69213219 9.24450584 7.69213219 9.22071838 6.28187561 C9.29227244 4.19999529 9.29227244 4.19999529 8.0625 3.1875 C5.19982433 3.11424832 2.361781 3.09511795 -0.5 3.125 C-1.30630859 3.12951172 -2.11261719 3.13402344 -2.94335938 3.13867188 C-4.94143756 3.15049482 -6.93947783 3.16843086 -8.9375 3.1875 Z " fill="#8F539D" transform="translate(386.9375,229.8125)"/>
<path d="M0 0 C3.625 0.4375 3.625 0.4375 6 2.75 C10.17804288 9.65984015 9.54888119 19.26755769 7.875 27 C6.60248768 30.49940888 5.15977273 32.73374242 2.625 35.4375 C-0.92650592 35.13308521 -2.34638802 34.46156007 -5.125 32.125 C-8.96348814 27.54013917 -8.58514843 22.86090394 -8.625 17.0625 C-8.645625 16.32 -8.66625 15.5775 -8.6875 14.8125 C-8.72198495 9.93287989 -8.02009214 6.68762378 -5.375 2.4375 C-3.375 0.4375 -3.375 0.4375 0 0 Z " fill="#5B53C2" transform="translate(512.375,251.5625)"/>
<path d="M0 0 C15.18 0 30.36 0 46 0 C46 5.94 46 11.88 46 18 C45 19 45 19 42.59155273 19.11352539 C41.54942627 19.10828857 40.5072998 19.10305176 39.43359375 19.09765625 C38.30888672 19.09443359 37.18417969 19.09121094 36.02539062 19.08789062 C34.84138672 19.07951172 33.65738281 19.07113281 32.4375 19.0625 C31.24962891 19.05798828 30.06175781 19.05347656 28.83789062 19.04882812 C25.89187774 19.03699675 22.94596319 19.02051287 20 19 C20 21.97 20 24.94 20 28 C28.58 28 37.16 28 46 28 C46 33.94 46 39.88 46 46 C37.42 46 28.84 46 20 46 C20 49.3 20 52.6 20 56 C28.58 56 37.16 56 46 56 C46 61.94 46 67.88 46 74 C30.82 74 15.64 74 0 74 C0 49.58 0 25.16 0 0 Z M1 1 C1 24.76 1 48.52 1 73 C15.52 73 30.04 73 45 73 C45 67.72 45 62.44 45 57 C36.09 57 27.18 57 18 57 C18.33 53.37 18.66 49.74 19 46 C21.51677113 44.74161443 23.41293288 44.79181027 26.2265625 44.68359375 C27.7734375 44.62075195 27.7734375 44.62075195 29.3515625 44.55664062 C30.43179687 44.51732422 31.51203125 44.47800781 32.625 44.4375 C33.71296875 44.39431641 34.8009375 44.35113281 35.921875 44.30664062 C38.6144257 44.20035573 41.30719576 44.09965496 44 44 C44 39.38 44 34.76 44 30 C35.75 30 27.5 30 19 30 C19 25.71 19 21.42 19 17 C27.58 17 36.16 17 45 17 C45 11.72 45 6.44 45 1 C30.48 1 15.96 1 1 1 Z " fill="#C8608A" transform="translate(323,232)"/>
<path d="M0 0 C6.6 0 13.2 0 20 0 C20 0.66 20 1.32 20 2 C13.73 2 7.46 2 1 2 C1 26.42 1 50.84 1 76 C16.18 76 31.36 76 47 76 C47 69.73 47 63.46 47 57 C44.43605469 57.01740234 44.43605469 57.01740234 41.8203125 57.03515625 C39.58854275 57.04453343 37.35677183 57.05363371 35.125 57.0625 C33.43310547 57.07506836 33.43310547 57.07506836 31.70703125 57.08789062 C30.63066406 57.09111328 29.55429687 57.09433594 28.4453125 57.09765625 C27.45031738 57.10289307 26.45532227 57.10812988 25.43017578 57.11352539 C23 57 23 57 21 56 C21 38.18 21 20.36 21 2 C21.33 2 21.66 2 22 2 C22 19.49 22 36.98 22 55 C30.91 55 39.82 55 49 55 C49.020625 58.42375 49.04125 61.8475 49.0625 65.375 C49.071604 66.45313965 49.08070801 67.5312793 49.09008789 68.64208984 C49.09258545 69.48980957 49.09508301 70.3375293 49.09765625 71.2109375 C49.10289307 72.08024902 49.10812988 72.94956055 49.11352539 73.84521484 C49 76 49 76 48 78 C41.50385868 78.05064837 35.00776815 78.0857117 28.51147461 78.10986328 C26.30084327 78.11993006 24.09022528 78.13358448 21.87963867 78.15087891 C18.70488189 78.17509738 15.53030094 78.18647627 12.35546875 78.1953125 C10.86940376 78.21079636 10.86940376 78.21079636 9.35331726 78.22659302 C8.43258926 78.22674408 7.51186127 78.22689514 6.56323242 78.22705078 C5.34744759 78.23371262 5.34744759 78.23371262 4.10710144 78.24050903 C2 78 2 78 -1 76 C-1.36749268 72.96362305 -1.36749268 72.96362305 -1.35644531 69.01171875 C-1.35848969 68.29287506 -1.36053406 67.57403137 -1.36264038 66.83340454 C-1.36565477 64.45117975 -1.34715215 62.06964281 -1.328125 59.6875 C-1.32506836 58.03605318 -1.32319152 56.38460378 -1.32244873 54.7331543 C-1.31784152 51.26959389 -1.3034 47.80626544 -1.28125 44.34277344 C-1.25296728 39.89709651 -1.24203896 35.45160246 -1.2375679 31.00584412 C-1.23341602 27.59499268 -1.22360048 24.18417843 -1.21169281 20.77334595 C-1.20598463 19.13384296 -1.20122774 17.49433639 -1.19742584 15.85482788 C-1.1905705 13.56591475 -1.17694154 11.27714785 -1.16113281 8.98828125 C-1.15430481 7.68415283 -1.14747681 6.38002441 -1.14044189 5.03637695 C-1 2 -1 2 0 0 Z " fill="#794DA3" transform="translate(430,230)"/>
<path d="M0 0 C5.59633898 0.6514257 8.11454591 3.37163335 11.91015625 7.3125 C15.1616612 11.49387459 16.60781976 15.94505985 18 21 C18.495 22.485 18.495 22.485 19 24 C19.23037432 27.37082151 19.18517364 30.74711957 19.1875 34.125 C19.19974609 35.03765625 19.21199219 35.9503125 19.22460938 36.890625 C19.2467738 47.26357725 16.96927593 56.82595213 12 66 C11.34 66 10.68 66 10 66 C9.773125 66.598125 9.54625 67.19625 9.3125 67.8125 C6.61416217 72.30972972 1.81223524 73.56656823 -3 75 C-3.88751953 75.26490234 -3.88751953 75.26490234 -4.79296875 75.53515625 C-12.03677701 77.0608433 -19.83538275 77.0718203 -26.28125 73.20703125 C-26.8484375 72.80871094 -27.415625 72.41039062 -28 72 C-28.88171875 71.38705078 -28.88171875 71.38705078 -29.78125 70.76171875 C-32.16655292 68.94461299 -33.8018696 67.52363035 -34.875 64.6875 C-34.91625 64.130625 -34.9575 63.57375 -35 63 C-35.66 63 -36.32 63 -37 63 C-38.69155793 60.29350731 -39.2150566 57.9338867 -39.5625 54.8125 C-39.57461534 51.21809061 -39.57461534 51.21809061 -41 50 C-41.2819205 45.54821895 -41.23183445 41.08464192 -41.25 36.625 C-41.270625 35.366875 -41.29125 34.10875 -41.3125 32.8125 C-41.31765625 31.60851562 -41.3228125 30.40453125 -41.328125 29.1640625 C-41.3374707 28.05498535 -41.34681641 26.9459082 -41.35644531 25.80322266 C-41 23 -41 23 -39.47949219 21.11474609 C-38.99125977 20.74687988 -38.50302734 20.37901367 -38 20 C-38.165 21.11375 -38.33 22.2275 -38.5 23.375 C-39.70942234 34.63329916 -39.93074505 45.89751651 -36.65625 56.8125 C-36 59 -36 59 -36 61 C-35.34 61 -34.68 61 -34 61 C-32.27110858 63.17593987 -30.71891853 65.44859857 -29.14453125 67.73828125 C-25.40492537 71.68223718 -21.41658199 72.842602 -16.09765625 73.43359375 C-14.75279486 73.45627935 -13.40740907 73.45715723 -12.0625 73.4375 C-11.3610083 73.43282715 -10.6595166 73.4281543 -9.93676758 73.42333984 C-4.22539118 73.26006284 -0.70482493 72.13654995 4 69 C4.99 68.34 5.98 67.68 7 67 C8.16558509 64.66882982 9.08211301 62.42893681 10 60 C10.35578125 59.24589844 10.7115625 58.49179687 11.078125 57.71484375 C16.27804434 45.28264222 15.67169382 28.09484846 13 15 C11.84030559 12.30102545 11.84030559 12.30102545 10.1875 10.1875 C9.64867187 9.44757813 9.10984375 8.70765625 8.5546875 7.9453125 C5.94479523 4.67966841 3.47761583 2.31841055 0 0 Z " fill="#7952A5" transform="translate(524,233)"/>
<path d="M0 0 C3.20005221 1.52729765 5.72962898 3.27683026 8 6 C8.68863568 9.06442875 8.59406659 11.92165492 8 15 C5.81840855 17.75569447 4.12822506 19.43588747 1 21 C-4.15434412 21.50698467 -4.15434412 21.50698467 -7 21 C-9.9375 18.5625 -9.9375 18.5625 -12 16 C-12.33 15.67 -12.66 15.34 -13 15 C-13.35536226 9.66956605 -13.44866826 6.34276744 -10 2 C-6.27420911 -0.48386059 -4.41288598 -0.3804212 0 0 Z " fill="#5756C5" transform="translate(109,245)"/>
<path d="M0 0 C3.96 0 7.92 0 12 0 C12 16.5 12 33 12 50 C8.7 50 5.4 50 2 50 C2 50.99 2 51.98 2 53 C-3.75 52.25 -3.75 52.25 -6 50 C-4.68 50 -3.36 50 -2 50 C-2.03122943 48.03243548 -2.03122943 48.03243548 -3 46 C-5.99615946 44.6954344 -5.99615946 44.6954344 -9 44 C-9.495 39.05 -9.495 39.05 -10 34 C-11.14275391 34.19916016 -11.14275391 34.19916016 -12.30859375 34.40234375 C-21.69557495 36.00785739 -30.41995411 37 -40 37 C-40 26.44 -40 15.88 -40 5 C-39.67 5 -39.34 5 -39 5 C-38.97494385 5.70084717 -38.9498877 6.40169434 -38.92407227 7.1237793 C-38.80773455 10.31185488 -38.68517956 13.49966242 -38.5625 16.6875 C-38.52318359 17.79029297 -38.48386719 18.89308594 -38.44335938 20.02929688 C-38.40146484 21.09599609 -38.35957031 22.16269531 -38.31640625 23.26171875 C-38.27974854 24.24100342 -38.24309082 25.22028809 -38.20532227 26.22924805 C-38.02800956 29.39344689 -38.02800956 29.39344689 -37 34 C-30.73 34 -24.46 34 -18 34 C-18 33.01 -18 32.02 -18 31 C-12.06 31 -6.12 31 0 31 C0 36.94 0 42.88 0 49 C3.63 49 7.26 49 11 49 C11 33.16 11 17.32 11 1 C7.37 1 3.74 1 0 1 C0 0.67 0 0.34 0 0 Z " fill="#5455C5" transform="translate(221,229)"/>
<path d="M0 0 C1.47726563 -0.02320313 1.47726563 -0.02320313 2.984375 -0.046875 C7.58657755 -0.02199823 10.23646248 0.01343197 14.1875 2.53125 C15.0846875 3.50578125 15.0846875 3.50578125 16 4.5 C15.67931204 7.46636366 15.47039428 9.05276706 13.26953125 11.14526367 C10.59156079 12.74380692 9.03654368 12.8738358 5.9375 12.86328125 C4.97585937 12.86263672 4.01421875 12.86199219 3.0234375 12.86132812 C2.02570313 12.84521484 1.02796875 12.82910156 0 12.8125 C-0.99773437 12.81572266 -1.99546875 12.81894531 -3.0234375 12.82226562 C-11.67816027 12.75845735 -11.67816027 12.75845735 -15 10.5 C-15.75 7.375 -15.75 7.375 -16 4.5 C-11.31025568 -0.59403263 -6.4646559 -0.1015391 0 0 Z " fill="#5656C4" transform="translate(205,288.5)"/>
<path d="M0 0 C3.5578125 -0.12375 3.5578125 -0.12375 7.1875 -0.25 C7.92508545 -0.28641602 8.6626709 -0.32283203 9.42260742 -0.36035156 C12.92776417 -0.41904696 14.9175936 -0.04857066 17.94921875 1.73828125 C20.20287964 4.22374726 20.68215103 5.13988549 20.625 8.4375 C20.63789063 9.17871094 20.65078125 9.91992188 20.6640625 10.68359375 C19.63508067 14.27292447 17.9522689 15.76331416 15 18 C12.11628549 18.37353815 10.01710038 18.48712853 7.1875 18.3125 C4.815625 18.209375 2.44375 18.10625 0 18 C0 12.06 0 6.12 0 0 Z " fill="#5555C6" transform="translate(327,342)"/>
<path d="M0 0 C6.6 0 13.2 0 20 0 C20 17.82 20 35.64 20 54 C32.87 54.495 32.87 54.495 46 55 C46 61.27 46 67.54 46 74 C30.82 74 15.64 74 0 74 C0 49.58 0 25.16 0 0 Z M1 1 C1 24.76 1 48.52 1 73 C15.19 73 29.38 73 44 73 C44 67.39 44 61.78 44 56 C35.75 55.67 27.5 55.34 19 55 C18.67 37.18 18.34 19.36 18 1 C12.39 1 6.78 1 1 1 Z " fill="#CD618A" transform="translate(431,232)"/>
<path d="M0 0 C2.65668964 2.65668964 3.31836412 5.61486883 4.375 9.125 C4.59124023 9.83422607 4.80748047 10.54345215 5.03027344 11.27416992 C11.30435708 32.16244619 11.30435708 32.16244619 11.7265625 43.05859375 C11.86191406 44.01958984 11.86191406 44.01958984 12 45 C12.66 45.33 13.32 45.66 14 46 C14.37890625 48.03125 14.37890625 48.03125 14.5625 50.5 C14.5792263 53.54981525 14.5792263 53.54981525 16 56 C16.08847743 58.52094076 16.11527301 61.01430893 16.09765625 63.53515625 C16.0962413 64.28840683 16.09482635 65.04165741 16.09336853 65.81773376 C16.08775376 68.2326956 16.07519883 70.64756601 16.0625 73.0625 C16.0574869 74.69596221 16.05292366 76.32942586 16.04882812 77.96289062 C16.03777954 81.97529585 16.02050506 85.98763241 16 90 C15.67 90 15.34 90 15 90 C14.96261719 89.07960938 14.92523437 88.15921875 14.88671875 87.2109375 C14.47838887 79.34858566 13.49965083 72.07314771 11.6953125 64.3828125 C10.7961456 60.008214 10.45801098 55.68367401 10.2109375 51.23046875 C10.24184456 49.02938087 10.24184456 49.02938087 9 48 C8.83952799 46.16943046 8.72231121 44.33501135 8.625 42.5 C8.26650753 37.74997483 7.4721254 33.78517243 5.82421875 29.33984375 C2.62016534 20.24397648 -0.2222147 9.69197967 0 0 Z " fill="#6855BC" transform="translate(614,213)"/>
<path d="M0 0 C5.61 0 11.22 0 17 0 C18 1 18 1 18.12025452 3.09437561 C18.1169236 4.47670631 18.1169236 4.47670631 18.11352539 5.88696289 C18.11344986 6.92796646 18.11337433 7.96897003 18.11329651 9.04151917 C18.10813522 10.1737944 18.10297394 11.30606964 18.09765625 12.47265625 C18.0962413 13.62543564 18.09482635 14.77821503 18.09336853 15.96592712 C18.08775005 19.66481064 18.07519442 23.36363464 18.0625 27.0625 C18.05748738 29.56315017 18.05292406 32.06380129 18.04882812 34.56445312 C18.03777462 40.70965588 18.02101852 46.85482369 18 53 C17.67 53 17.34 53 17 53 C15.84316758 47.5000424 15.87208089 42.16023272 15.90234375 36.5703125 C15.9037587 35.57998016 15.90517365 34.58964783 15.90663147 33.56930542 C15.91220748 30.42117227 15.92475558 27.27311148 15.9375 24.125 C15.9425181 21.98437603 15.94708046 19.84375094 15.95117188 17.703125 C15.96216906 12.46872551 15.97888325 7.23436793 16 2 C14.04081032 2.05991406 12.08248471 2.14867138 10.125 2.25 C9.03445313 2.29640625 7.94390625 2.3428125 6.8203125 2.390625 C3.95100851 2.67777018 3.95100851 2.67777018 2.84365845 4.63677979 C1.7657535 7.65616134 1.71845195 10.21313252 1.68115234 13.42089844 C1.66128265 14.72194519 1.64141296 16.02299194 1.62094116 17.36346436 C1.60906559 18.77876618 1.59740268 20.1940698 1.5859375 21.609375 C1.56722203 23.06098528 1.54764833 24.51258473 1.5272522 25.96417236 C1.47596478 29.77811287 1.43632108 33.59208862 1.39910889 37.40618896 C1.35904788 41.30082904 1.30796513 45.19532287 1.2578125 49.08984375 C1.16109341 56.7264621 1.07667595 64.36315131 1 72 C0.67 72 0.34 72 0 72 C0 48.24 0 24.48 0 0 Z " fill="#EA5B6E" transform="translate(378,233)"/>
<path d="M0 0 C0.33 0 0.66 0 1 0 C1 23.76 1 47.52 1 72 C-16 72 -16 72 -18 71 C-18 62.42 -18 53.84 -18 45 C-22.62 45 -27.24 45 -32 45 C-31.67 44.34 -31.34 43.68 -31 43 C-29.06257659 42.97296619 -27.12504521 42.95358875 -25.1875 42.9375 C-23.56908203 42.92009766 -23.56908203 42.92009766 -21.91796875 42.90234375 C-19 43 -19 43 -16 44 C-15.67 52.25 -15.34 60.5 -15 69 C-10.05 69.66 -5.1 70.32 0 71 C0 47.57 0 24.14 0 0 Z " fill="#DE6079" transform="translate(313,234)"/>
<path d="M0 0 C13.365 0.495 13.365 0.495 27 1 C27.020625 3.949375 27.04125 6.89875 27.0625 9.9375 C27.071604 10.86812256 27.08070801 11.79874512 27.09008789 12.75756836 C27.09258545 13.48596924 27.09508301 14.21437012 27.09765625 14.96484375 C27.10289307 15.7137085 27.10812988 16.46257324 27.11352539 17.23413086 C27 19 27 19 26 20 C24.64905018 20.09268999 23.29332909 20.11747326 21.93920898 20.11352539 C21.07839218 20.11344986 20.21757538 20.11337433 19.33067322 20.11329651 C18.39526199 20.10813522 17.45985077 20.10297394 16.49609375 20.09765625 C15.54307877 20.0962413 14.59006378 20.09482635 13.60816956 20.09336853 C10.55124835 20.08775152 7.49439923 20.07519616 4.4375 20.0625 C2.37044376 20.05748719 0.30338638 20.05292391 -1.76367188 20.04882812 C-6.84247588 20.03777656 -11.9212257 20.02050055 -17 20 C-17 19.67 -17 19.34 -17 19 C-12.5628279 17.92234627 -8.17863728 17.78325478 -3.63671875 17.68359375 C-2.84473587 17.66281265 -2.05275299 17.64203156 -1.23677063 17.62062073 C1.27956928 17.55552196 3.79600872 17.49642577 6.3125 17.4375 C8.02409861 17.394277 9.73568735 17.35066152 11.44726562 17.30664062 C15.63140984 17.19988153 19.81565362 17.09850365 24 17 C24.33 12.38 24.66 7.76 25 3 C17.08 3 9.16 3 1 3 C0.67 2.01 0.34 1.02 0 0 Z " fill="#E35E75" transform="translate(396,286)"/>
<path d="M0 0 C0 1.32 0 2.64 0 4 C-4.52724095 4.68335713 -8.79495896 5.03522492 -13.375 4.9375 C-22.70694026 4.85994925 -31.18052155 6.78701437 -39 12 C-39 11.01 -39 10.02 -39 9 C-37.68 8.67 -36.36 8.34 -35 8 C-35 7.34 -35 6.68 -35 6 C-32.03 5.01 -29.06 4.02 -26 3 C-26.33 2.34 -26.66 1.68 -27 1 C-25.02 0.67 -23.04 0.34 -21 0 C-21 -0.33 -21 -0.66 -21 -1 C-6.22222222 -3.11111111 -6.22222222 -3.11111111 0 0 Z " fill="#5759BE" transform="translate(219,275)"/>
<path d="M0 0 C6.53278786 -0.02527002 13.06556321 -0.04283292 19.59838867 -0.05493164 C21.82267732 -0.05997317 24.04696263 -0.06680623 26.27124023 -0.07543945 C29.46078309 -0.08751298 32.65028229 -0.09322996 35.83984375 -0.09765625 C37.34139259 -0.10539818 37.34139259 -0.10539818 38.87327576 -0.11329651 C39.79415482 -0.11337204 40.71503387 -0.11344757 41.66381836 -0.11352539 C42.47878281 -0.115746 43.29374725 -0.11796661 44.13340759 -0.12025452 C46 0 46 0 47 1 C47.09860131 2.40348735 47.13078937 3.81180477 47.1328125 5.21875 C47.13474609 6.49298828 47.13474609 6.49298828 47.13671875 7.79296875 C47.13285156 8.68628906 47.12898438 9.57960937 47.125 10.5 C47.13080078 11.83998047 47.13080078 11.83998047 47.13671875 13.20703125 C47.13542969 14.05652344 47.13414062 14.90601563 47.1328125 15.78125 C47.13168457 16.56564453 47.13055664 17.35003906 47.12939453 18.15820312 C47 20 47 20 46 21 C44.14630389 21.08737645 42.28932459 21.10698153 40.43359375 21.09765625 C39.30888672 21.09443359 38.18417969 21.09121094 37.02539062 21.08789062 C35.84138672 21.07951172 34.65738281 21.07113281 33.4375 21.0625 C32.24962891 21.05798828 31.06175781 21.05347656 29.83789062 21.04882812 C26.89187774 21.03699675 23.94596319 21.02051287 21 21 C21 22.98 21 24.96 21 27 C28.59 27.33 36.18 27.66 44 28 C44 28.33 44 28.66 44 29 C35.75 29 27.5 29 19 29 C19 26.03 19 23.06 19 20 C31.375 19.505 31.375 19.505 44 19 C44.33 13.06 44.66 7.12 45 1 C30.15 1 15.3 1 0 1 C0 0.67 0 0.34 0 0 Z " fill="#6F4EA7" transform="translate(324,231)"/>
<path d="M0 0 C0.66 0 1.32 0 2 0 C2.05791844 3.12492251 2.09356746 6.24970766 2.125 9.375 C2.14175781 10.26445312 2.15851563 11.15390625 2.17578125 12.0703125 C2.18544922 13.34648437 2.18544922 13.34648437 2.1953125 14.6484375 C2.21102295 15.82672119 2.21102295 15.82672119 2.22705078 17.02880859 C2 19 2 19 0 21 C-1.9354248 21.25396729 -1.9354248 21.25396729 -4.32617188 21.25878906 C-5.66766296 21.26824554 -5.66766296 21.26824554 -7.03625488 21.27789307 C-8.00397827 21.2738446 -8.97170166 21.26979614 -9.96875 21.265625 C-11.45562317 21.26849518 -11.45562317 21.26849518 -12.97253418 21.27142334 C-15.07072198 21.27278585 -17.16891819 21.26908482 -19.26708984 21.26074219 C-22.48684546 21.25004371 -25.70604308 21.26063536 -28.92578125 21.2734375 C-30.96093874 21.27211592 -32.99609588 21.26955355 -35.03125 21.265625 C-35.99897339 21.26967346 -36.96669678 21.27372192 -37.96374512 21.27789307 C-38.85807251 21.27158875 -39.7523999 21.26528442 -40.67382812 21.25878906 C-41.46277466 21.25719788 -42.25172119 21.25560669 -43.0645752 21.25396729 C-45 21 -45 21 -47 19 C-24.23 18.505 -24.23 18.505 -1 18 C-0.67 12.06 -0.34 6.12 0 0 Z " fill="#6750B4" transform="translate(369,288)"/>
<path d="M0 0 C0.33 0.66 0.66 1.32 1 2 C0.67 2.99 0.34 3.98 0 5 C-0.1490798 7.76371005 -0.23109829 10.4856242 -0.25 13.25 C-0.270625 13.98863281 -0.29125 14.72726562 -0.3125 15.48828125 C-0.34951728 20.7354813 0.48388634 24.36752906 3 29 C5.74605843 31.24621573 5.74605843 31.24621573 8.5 30.9375 C11.98791941 29.62953022 12.44112505 28.39259288 14 25 C14.63689185 21.57972256 14.92047466 18.15392985 15.1875 14.6875 C15.26935547 13.75615234 15.35121094 12.82480469 15.43554688 11.86523438 C15.6349871 9.57753768 15.82275822 7.28950552 16 5 C19.40227265 10.10340898 18.5385661 16.04409251 18 22 C15.69391304 30.30608696 15.69391304 30.30608696 13 33 C7.26607459 33.5931647 4.10524829 32.99603358 -0.65234375 29.77734375 C-3.96339437 25.41059583 -3.16077036 18.62470041 -3.1875 13.375 C-3.20876953 11.46847656 -3.20876953 11.46847656 -3.23046875 9.5234375 C-2.9993434 5.98996178 -2.61051887 2.61051887 0 0 Z " fill="#BB5D89" transform="translate(505,255)"/>
<path d="M0 0 C0.98110936 3.0817007 0.96389562 4.97242457 0.109375 8.07421875 C-1.1632212 13.31350159 -1.52691953 18.43658815 -1.75 23.8125 C-1.79165283 24.77792725 -1.83330566 25.74335449 -1.8762207 26.73803711 C-2.17305896 35.67249287 -1.50296664 43.70816756 2 52 C2.66 52 3.32 52 4 52 C5.21875 53.4609375 5.21875 53.4609375 6.5 55.375 C7.92246226 57.48267274 9.19154973 59.19154973 11 61 C7.4628562 60.43867066 6.00738321 59.30442253 3.75 56.5625 C3.22921875 55.94503906 2.7084375 55.32757813 2.171875 54.69140625 C1 53 1 53 1 51 C0.34 51 -0.32 51 -1 51 C-6.22508554 36.49105712 -7.74336845 18.61041857 -2.19921875 3.87109375 C-1.375 2.1875 -1.375 2.1875 0 0 Z " fill="#CF6083" transform="translate(489,243)"/>
<path d="M0 0 C0.66 0 1.32 0 2 0 C2.02690104 2.79173055 2.04679053 5.58320348 2.0625 8.375 C2.07087891 9.1690625 2.07925781 9.963125 2.08789062 10.78125 C2.11328125 16.7734375 2.11328125 16.7734375 1 19 C-7.25 19 -15.5 19 -24 19 C-24 21.31 -24 23.62 -24 26 C-16.41 26 -8.82 26 -1 26 C-1 26.33 -1 26.66 -1 27 C-9.25 27 -17.5 27 -26 27 C-26 23.7 -26 20.4 -26 17 C-17.42 17 -8.84 17 0 17 C0 11.39 0 5.78 0 0 Z " fill="#7052AA" transform="translate(369,261)"/>
<path d="M0 0 C19.14 0 38.28 0 58 0 C58.495 1.485 58.495 1.485 59 3 C29.3 2.505 29.3 2.505 -1 2 C-0.67 1.34 -0.34 0.68 0 0 Z " fill="#5A58AE" transform="translate(299,319)"/>
<path d="M0 0 C5.59633898 0.6514257 8.11454591 3.37163335 11.91015625 7.3125 C15.1616612 11.49387459 16.60781976 15.94505985 18 21 C18.33 21.99 18.66 22.98 19 24 C19.23037432 27.37082151 19.18517364 30.74711957 19.1875 34.125 C19.19974609 35.03765625 19.21199219 35.9503125 19.22460938 36.890625 C19.23698346 42.68169568 19.04076424 48.51181609 17 54 C16.01 54.495 16.01 54.495 15 55 C15.15984375 53.90429688 15.3196875 52.80859375 15.484375 51.6796875 C16.12765919 46.4946344 16.22127952 41.34494722 16.25 36.125 C16.270625 35.19558594 16.29125 34.26617187 16.3125 33.30859375 C16.37879598 21.42504009 12.72848384 12.3831677 4.8125 3.5625 C2.87670594 1.82886724 2.87670594 1.82886724 0 0 Z " fill="#674FAF" transform="translate(524,233)"/>
<path d="M0 0 C3.96 0 7.92 0 12 0 C12 16.5 12 33 12 50 C8.7 50 5.4 50 2 50 C2 50.99 2 51.98 2 53 C-3.75 52.25 -3.75 52.25 -6 50 C-4.68 50 -3.36 50 -2 50 C-1.67 43.73 -1.34 37.46 -1 31 C-0.67 31 -0.34 31 0 31 C0 36.94 0 42.88 0 49 C3.63 49 7.26 49 11 49 C11 33.16 11 17.32 11 1 C7.37 1 3.74 1 0 1 C0 0.67 0 0.34 0 0 Z " fill="#9195D9" transform="translate(221,229)"/>
<path d="M0 0 C3.26796519 2.82233358 4.77058159 5.71961349 5.20703125 10.05786133 C5.30549862 12.47928669 5.32192936 14.88915572 5.3125 17.3125 C5.32861328 18.12912109 5.34472656 18.94574219 5.36132812 19.78710938 C5.36688303 26.75851123 4.18137217 32.35939158 -0.375 37.875 C-4.81388095 41.46837982 -8.52550974 42.27813411 -14.1875 42.25 C-15.23292969 42.25515625 -16.27835938 42.2603125 -17.35546875 42.265625 C-20 42 -20 42 -22 40 C-20.71222656 39.87882812 -19.42445313 39.75765625 -18.09765625 39.6328125 C-16.41922152 39.46403135 -14.74083865 39.29473387 -13.0625 39.125 C-12.21236328 39.04636719 -11.36222656 38.96773438 -10.48632812 38.88671875 C-9.67744141 38.80292969 -8.86855469 38.71914063 -8.03515625 38.6328125 C-7.2862915 38.55949707 -6.53742676 38.48618164 -5.76586914 38.41064453 C-4.89176392 38.20737549 -4.89176392 38.20737549 -4 38 C-3.67 37.34 -3.34 36.68 -3 36 C-2.34 36 -1.68 36 -1 36 C-1 34.68 -1 33.36 -1 32 C-0.34 32 0.32 32 1 32 C2.77410051 26.68468311 3.2577668 22.14381195 3.125 16.5625 C3.11597656 15.83095703 3.10695312 15.09941406 3.09765625 14.34570312 C3.07436153 12.56365702 3.0385019 10.78178241 3 9 C2.34 9 1.68 9 1 9 C0 2.25 0 2.25 0 0 Z " fill="#6263B6" transform="translate(250,347)"/>
<path d="M0 0 C9.9 0 19.8 0 30 0 C30 11.22 30 22.44 30 34 C30.33 33.34 30.66 32.68 31 32 C31.99 32 32.98 32 34 32 C32.63016497 35.16115776 32.0109362 35.9927092 29 38 C29 26.12 29 14.24 29 2 C19.43 2 9.86 2 0 2 C0 1.34 0 0.68 0 0 Z " fill="#5A57AE" transform="translate(440,319)"/>
<path d="M0 0 C2.65663527 2.65663527 3.31852439 5.61485463 4.375 9.125 C4.59051514 9.83277588 4.80603027 10.54055176 5.02807617 11.26977539 C11.68237849 33.44670121 11.68237849 33.44670121 11 43 C10.67 43 10.34 43 10 43 C9.5978125 41.5459375 9.5978125 41.5459375 9.1875 40.0625 C8.39676891 37.27823561 7.51055525 34.54689094 6.5625 31.8125 C3.20056549 21.82857326 -0.24323881 10.60895428 0 0 Z " fill="#8056AE" transform="translate(614,213)"/>
<path d="M0 0 C3.5578125 -0.12375 3.5578125 -0.12375 7.1875 -0.25 C7.92508545 -0.28641602 8.6626709 -0.32283203 9.42260742 -0.36035156 C12.92776417 -0.41904696 14.9175936 -0.04857066 17.94921875 1.73828125 C20.20287964 4.22374726 20.68215103 5.13988549 20.625 8.4375 C20.63789063 9.17871094 20.65078125 9.91992188 20.6640625 10.68359375 C19.63508067 14.27292447 17.9522689 15.76331416 15 18 C12.11628549 18.37353815 10.01710038 18.48712853 7.1875 18.3125 C4.815625 18.209375 2.44375 18.10625 0 18 C0 12.06 0 6.12 0 0 Z M2 1 C2 5.95 2 10.9 2 16 C7.02125926 16.77916092 10.97703996 17.13016601 16 16 C16 15.34 16 14.68 16 14 C16.66 14 17.32 14 18 14 C18.10824843 12.3973218 18.18570645 10.79254252 18.25 9.1875 C18.29640625 8.29417969 18.3428125 7.40085937 18.390625 6.48046875 C18.21625747 3.9108308 18.21625747 3.9108308 16.375 2.1875 C13.33233486 0.66616743 11.13553802 0.70210202 7.75 0.8125 C5.8525 0.874375 3.955 0.93625 2 1 Z " fill="#6162B2" transform="translate(327,342)"/>
<path d="M0 0 C6.6 0 13.2 0 20 0 C20 1.65 20 3.3 20 5 C13.4 5 6.8 5 0 5 C0 3.33333333 0 1.66666667 0 0 Z " fill="#6267BA" transform="translate(201,246)"/>
<path d="M0 0 C0.33 0 0.66 0 1 0 C1.02505615 0.70084717 1.0501123 1.40169434 1.07592773 2.1237793 C1.19226545 5.31185488 1.31482044 8.49966242 1.4375 11.6875 C1.47681641 12.79029297 1.51613281 13.89308594 1.55664062 15.02929688 C1.59853516 16.09599609 1.64042969 17.16269531 1.68359375 18.26171875 C1.72025146 19.24100342 1.75690918 20.22028809 1.79467773 21.22924805 C1.97199044 24.39344689 1.97199044 24.39344689 3 29 C9.27 29 15.54 29 22 29 C22 28.34 22 27.68 22 27 C23.65 27 25.3 27 27 27 C27 27.99 27 28.98 27 30 C24.18814406 30.33972801 21.37571764 30.67190212 18.5625 31 C17.77939453 31.09539062 16.99628906 31.19078125 16.18945312 31.2890625 C15.40634766 31.37929688 14.62324219 31.46953125 13.81640625 31.5625 C13.10943604 31.64628906 12.40246582 31.73007812 11.67407227 31.81640625 C7.79137399 32.08298062 3.89183861 32 0 32 C0 21.44 0 10.88 0 0 Z " fill="#6B6EBB" transform="translate(181,234)"/>
<path d="M0 0 C0.33 0 0.66 0 1 0 C1.33 15.51 1.66 31.02 2 47 C1.01 47.495 1.01 47.495 0 48 C0 32.16 0 16.32 0 0 Z M-10 48 C-6.7 48 -3.4 48 0 48 C0 48.33 0 48.66 0 49 C-1.65 49 -3.3 49 -5 49 C-4.01 50.98 -3.02 52.96 -2 55 C-5.63563409 55 -7.12645755 54.17457267 -10 52 C-10 50.68 -10 49.36 -10 48 Z " fill="#5559B6" transform="translate(233,231)"/>
<path d="M0 0 C2.31813824 1.87750039 4.05297022 3.70350333 6 6 C6 6.66 6 7.32 6 8 C5.34 8 4.68 8 4 8 C3.278125 7.071875 2.55625 6.14375 1.8125 5.1875 C-1.37781709 1.25308563 -4.87706415 -0.55119485 -9.95703125 -1.28125 C-18.43181398 -1.65860582 -28.8006031 -0.46487782 -35.375 5.1875 C-36.674375 6.5796875 -36.674375 6.5796875 -38 8 C-35.79500983 3.38422058 -33.53085681 0.0438231 -28.61328125 -1.984375 C-18.6696714 -4.99157227 -9.04149257 -5.74730536 0 0 Z " fill="#C96086" transform="translate(528,235)"/>
<path d="M0 0 C4.28284393 4.28284393 3.18385548 10.21141818 3.1875 15.875 C3.19974609 16.86886719 3.21199219 17.86273438 3.22460938 18.88671875 C3.22750977 20.33111328 3.22750977 20.33111328 3.23046875 21.8046875 C3.23457764 22.68108887 3.23868652 23.55749023 3.24291992 24.46044922 C2.97157689 27.29714291 2.13856592 29.39930646 1 32 C0.67 33.155 0.34 34.31 0 35.5 C-1.66666667 41.33333333 -1.66666667 41.33333333 -3 44 C-4.485 44.495 -4.485 44.495 -6 45 C-5.71350586 44.28618164 -5.42701172 43.57236328 -5.13183594 42.83691406 C-4.75833008 41.90073242 -4.38482422 40.96455078 -4 40 C-3.64969727 39.14374023 -3.29939453 38.28748047 -2.93847656 37.40527344 C0.12800998 29.22321289 0.48544918 21.92539664 0.25 13.25 C0.22292969 11.32800781 0.22292969 11.32800781 0.1953125 9.3671875 C0.14869741 6.24397664 0.08328138 3.12241126 0 0 Z " fill="#C4608B" transform="translate(538,253)"/>
<path d="M0 0 C0 0.66 0 1.32 0 2 C-1.32 2.33 -2.64 2.66 -4 3 C-4 3.66 -4 4.32 -4 5 C-5.65 5.33 -7.3 5.66 -9 6 C-9 6.33 -9 6.66 -9 7 C-9.96099609 7.16435547 -9.96099609 7.16435547 -10.94140625 7.33203125 C-17.69204067 8.56947988 -23.23025882 10.15350588 -29 14 C-29 13.01 -29 12.02 -29 11 C-27.68 10.67 -26.36 10.34 -25 10 C-25 9.34 -25 8.68 -25 8 C-22.03 7.01 -19.06 6.02 -16 5 C-16.33 4.34 -16.66 3.68 -17 3 C-15.02 2.67 -13.04 2.34 -11 2 C-11 1.67 -11 1.34 -11 1 C-3.375 0 -3.375 0 0 0 Z " fill="#6265BC" transform="translate(209,273)"/>
<path d="M0 0 C0.33 0.99 0.66 1.98 1 3 C0.01 3.33 -0.98 3.66 -2 4 C-3.00916033 5.76591887 -3.00916033 5.76591887 -4 8 C-5.32346506 10.0065438 -6.65729179 12.00628175 -8 14 C-8.45375 14.86625 -8.9075 15.7325 -9.375 16.625 C-12.20133678 20.75579991 -16.52732259 22.93568735 -21 25 C-18.08859283 20.36409026 -14.83019129 16.4605444 -11.0625 12.5 C-7.22776609 8.43855855 -3.5369355 4.3250924 0 0 Z " fill="#6061BB" transform="translate(534,322)"/>
<path d="M0 0 C3.5625 0.3125 3.5625 0.3125 5.5 1.8125 C5.850625 2.3075 6.20125 2.8025 6.5625 3.3125 C6.2325 3.9725 5.9025 4.6325 5.5625 5.3125 C4.5725 4.6525 3.5825 3.9925 2.5625 3.3125 C2.2325 3.9725 1.9025 4.6325 1.5625 5.3125 C1.2325 4.3225 0.9025 3.3325 0.5625 2.3125 C-3.67659564 6.10982782 -3.67659564 6.10982782 -5.4375 11.3125 C-5.7675 11.6425 -6.0975 11.9725 -6.4375 12.3125 C-6.67231693 14.49542774 -6.85113323 16.68453174 -7 18.875 C-7.08378906 20.07253906 -7.16757812 21.27007812 -7.25390625 22.50390625 C-7.31449219 23.43074219 -7.37507813 24.35757812 -7.4375 25.3125 C-7.7675 25.3125 -8.0975 25.3125 -8.4375 25.3125 C-8.51894943 22.60355233 -8.57820614 19.89708737 -8.625 17.1875 C-8.65013672 16.42695313 -8.67527344 15.66640625 -8.70117188 14.8828125 C-8.7653713 9.91805693 -8.15020344 6.63443429 -5.4375 2.3125 C-3.4375 0.3125 -3.4375 0.3125 0 0 Z " fill="#6B4FAF" transform="translate(512.4375,251.6875)"/>
<path d="M0 0 C0 0.99 0 1.98 0 3 C-1.64453125 4.3515625 -1.64453125 4.3515625 -3.8125 5.625 C-4.52019531 6.05039062 -5.22789062 6.47578125 -5.95703125 6.9140625 C-10.23288555 9.18688754 -14.21392785 9.21616958 -18.9375 9.25 C-19.65357422 9.270625 -20.36964844 9.29125 -21.10742188 9.3125 C-24.44214897 9.33722458 -26.61813636 9.23114367 -29.50390625 7.484375 C-30.24447266 6.74960937 -30.24447266 6.74960937 -31 6 C-29.02966797 6.01740234 -29.02966797 6.01740234 -27.01953125 6.03515625 C-25.28385559 6.04453828 -23.54817839 6.05363804 -21.8125 6.0625 C-20.51602539 6.07506836 -20.51602539 6.07506836 -19.19335938 6.08789062 C-14.99713231 6.10396812 -11.09063114 6.07559038 -7 5 C-6.67 4.01 -6.34 3.02 -6 2 C-2.9375 0.8125 -2.9375 0.8125 0 0 Z " fill="#D06283" transform="translate(531,298)"/>
<path d="M0 0 C1.32 0.33 2.64 0.66 4 1 C4.66 3.97 5.32 6.94 6 10 C6.66 10 7.32 10 8 10 C8.90816798 13.86207074 9.11643845 17.43148656 9.09765625 21.39453125 C9.09443359 22.59658203 9.09121094 23.79863281 9.08789062 25.03710938 C9.07951172 26.28298828 9.07113281 27.52886719 9.0625 28.8125 C9.05798828 30.07771484 9.05347656 31.34292969 9.04882812 32.64648438 C9.03706251 35.7643711 9.02062272 38.88216133 9 42 C7 40 7 40 6.91015625 36.359375 C6.95668902 34.82278213 7.00775495 33.28632221 7.0625 31.75 C7.25825824 20.36187825 5.80835689 10.01440842 0 0 Z " fill="#5D5FB5" transform="translate(276,336)"/>
<path d="M0 0 C0.66 0.33 1.32 0.66 2 1 C1.05598958 2.85546875 0.11197917 4.7109375 -0.83203125 6.56640625 C-1.21746094 7.36949219 -1.60289062 8.17257813 -2 9 C-2.5259375 9.969375 -3.051875 10.93875 -3.59375 11.9375 C-5.93686885 17.46019476 -5.57480664 23.5355879 -5.6875 29.4375 C-5.72166016 30.64599609 -5.75582031 31.85449219 -5.79101562 33.09960938 C-5.87309835 36.06631349 -5.94238015 39.03273676 -6 42 C-6.33 42 -6.66 42 -7 42 C-8.44907546 27.13025639 -9.28168056 12.48226006 0 0 Z " fill="#5E53BB" transform="translate(489,240)"/>
<path d="M0 0 C2 2 2 2 2.22705078 4.43017578 C2.21657715 5.4251709 2.20610352 6.42016602 2.1953125 7.4453125 C2.18886719 8.52167969 2.18242187 9.59804688 2.17578125 10.70703125 C2.15902344 11.83496094 2.14226562 12.96289062 2.125 14.125 C2.11597656 15.26066406 2.10695313 16.39632813 2.09765625 17.56640625 C2.07403098 20.37781299 2.04109013 23.18880298 2 26 C2.99 25.34 3.98 24.68 5 24 C6.32 24 7.64 24 9 24 C7.50958227 27.79379058 5.30937488 29.68343758 2 32 C1.34 32 0.68 32 0 32 C0 21.44 0 10.88 0 0 Z " fill="#5358B8" transform="translate(470,321)"/>
<path d="M0 0 C1 2 1 2 0.125 4.875 C-0.24625 5.90625 -0.6175 6.9375 -1 8 C-1.54400367 10.05512499 -2.02631274 12.11511822 -2.5 14.1875 C-3 16 -3 16 -4 17 C-4.23363881 18.84891946 -4.41303635 20.70488031 -4.5625 22.5625 C-4.64628906 23.57441406 -4.73007813 24.58632813 -4.81640625 25.62890625 C-4.87699219 26.41136719 -4.93757812 27.19382812 -5 28 C-5.33 28 -5.66 28 -6 28 C-6.10901505 25.16560863 -6.18777904 22.33549797 -6.25 19.5 C-6.28351563 18.70851563 -6.31703125 17.91703125 -6.3515625 17.1015625 C-6.44819563 11.20694157 -5.25694978 6.94385201 -2 2 C-1.34 1.34 -0.68 0.68 0 0 Z " fill="#6060B9" transform="translate(224,344)"/>
<path d="M0 0 C5.61 0 11.22 0 17 0 C17 4.29 17 8.58 17 13 C16.67 13 16.34 13 16 13 C16 9.04 16 5.08 16 1 C14.68 1 13.36 1 12 1 C11.34 4.63 10.68 8.26 10 12 C8.11656068 8.23312136 7.77942165 6.97041037 8 3 C7.01 3 6.02 3 5 3 C5 2.34 5 1.68 5 1 C3.35 1 1.7 1 0 1 C0 0.67 0 0.34 0 0 Z " fill="#5659B1" transform="translate(203,260)"/>
<path d="M0 0 C0.66 0.33 1.32 0.66 2 1 C1.67 1.66 1.34 2.32 1 3 C0.59748538 8.23269006 1.19916119 11.53940485 4 16 C4.99 16.66 5.98 17.32 7 18 C6.67 18.66 6.34 19.32 6 20 C5.01 20.33 4.02 20.66 3 21 C-0.81365504 15.58707027 -2.14877305 12.30675208 -2.0625 5.75 C-2.05347656 4.85796875 -2.04445312 3.9659375 -2.03515625 3.046875 C-2.02355469 2.37140625 -2.01195312 1.6959375 -2 1 C-1.34 0.67 -0.68 0.34 0 0 Z " fill="#5D5EBE" transform="translate(177,288)"/>
<path d="M0 0 C0.66 0.33 1.32 0.66 2 1 C2 2.65 2 4.3 2 6 C11.04389655 7.60780383 19.9264239 7.18997719 29 6 C27.29797917 8.11346769 26.42601755 8.93093688 23.70336914 9.37231445 C22.82285889 9.3693335 21.94234863 9.36635254 21.03515625 9.36328125 C20.07029297 9.36263672 19.10542969 9.36199219 18.11132812 9.36132812 C17.10521484 9.34521484 16.09910156 9.32910156 15.0625 9.3125 C13.55913086 9.31733398 13.55913086 9.31733398 12.02539062 9.32226562 C3.33626437 9.25850286 3.33626437 9.25850286 0 7 C-0.8125 3.9375 -0.8125 3.9375 -1 1 C-0.67 0.67 -0.34 0.34 0 0 Z " fill="#5A61B3" transform="translate(190,292)"/>
<path d="M0 0 C2.57075841 3.01447835 3.52207066 5.35979771 4.1875 9.25 C4.34605469 10.14203125 4.50460937 11.0340625 4.66796875 11.953125 C4.83232422 12.96632812 4.83232422 12.96632812 5 14 C5.66 14 6.32 14 7 14 C7 15.32 7 16.64 7 18 C7.66 18.33 8.32 18.66 9 19 C9 20.65 9 22.3 9 24 C8.34 23.34 7.68 22.68 7 22 C7 21.01 7 20.02 7 19 C6.01 18.67 5.02 18.34 4 18 C3.05078125 16.0390625 3.05078125 16.0390625 2.3125 13.625 C2.06113281 12.83351562 1.80976562 12.04203125 1.55078125 11.2265625 C1 9 1 9 1 6 C0.34 6 -0.32 6 -1 6 C-0.67 4.02 -0.34 2.04 0 0 Z " fill="#7455B5" transform="translate(605,189)"/>
<path d="M0 0 C3.40058449 5.10087674 2.54408126 11.04673872 2 17 C0.99228877 20.52698932 -0.31911807 23.74329127 -2 27 C-2.99 27 -3.98 27 -5 27 C-4.52949219 26.06027344 -4.05898438 25.12054688 -3.57421875 24.15234375 C-1.54335736 19.41366718 -1.21238567 14.65829076 -0.8125 9.5625 C-0.73064453 8.64017578 -0.64878906 7.71785156 -0.56445312 6.76757812 C-0.36581083 4.51240384 -0.17793147 2.25688658 0 0 Z " fill="#CF5F80" transform="translate(521,260)"/>
<path d="M0 0 C0.33 0.66 0.66 1.32 1 2 C1.66 2.33 2.32 2.66 3 3 C3.37890625 5.03125 3.37890625 5.03125 3.5625 7.5 C3.5792263 10.54981525 3.5792263 10.54981525 5 13 C5.07325168 15.86267567 5.09238205 18.700719 5.0625 21.5625 C5.05798828 22.36880859 5.05347656 23.17511719 5.04882812 24.00585938 C5.03700518 26.00393756 5.01906914 28.00197783 5 30 C2.89172782 26.83759173 2.71687739 25.77938407 2.5 22.125 C2.09529496 16.60629488 1.30109149 11.20808848 0.40234375 5.75 C0 3 0 3 0 0 Z " fill="#8759AD" transform="translate(625,256)"/>
<path d="M0 0 C6.55171711 0.72925473 9.98707953 5.10562879 14 10 C16.83011704 14.83515294 17.34269985 19.51680241 17 25 C15.1018802 22.1528203 14.35847593 20.1011687 13.375 16.875 C10.83729453 9.66408597 6.34939177 4.23292785 0 0 Z " fill="#7651A7" transform="translate(524,233)"/>
<path d="M0 0 C1.55902523 5.30304793 0.91730033 10.08563409 -1.4375 15 C-1.953125 15.66 -2.46875 16.32 -3 17 C-3.66 17 -4.32 17 -5 17 C-5.226875 17.598125 -5.45375 18.19625 -5.6875 18.8125 C-7.36710046 21.61183411 -9.09105125 22.58100061 -12 24 C-12.99 24 -13.98 24 -15 24 C-14.54109375 23.61328125 -14.0821875 23.2265625 -13.609375 22.828125 C-5.19893716 15.68985423 -2.21472261 10.81444338 0 0 Z " fill="#7352AA" transform="translate(539,282)"/>
<path d="M0 0 C0.97372653 3.06831097 0.97215205 4.96691795 0.1328125 8.05859375 C-1.16038543 13.36070525 -1.66406588 18.63330054 -2.125 24.0625 C-2.21136719 25.02349609 -2.29773438 25.98449219 -2.38671875 26.97460938 C-2.59639503 29.31599448 -2.8007244 31.65771078 -3 34 C-3.33 34 -3.66 34 -4 34 C-4.1060538 27.01223287 -4.03308454 20.04330763 -3.6875 13.0625 C-3.62949219 11.85722656 -3.57148438 10.65195313 -3.51171875 9.41015625 C-2.96320912 5.7548211 -1.81964284 3.19535137 0 0 Z " fill="#EF5B68" transform="translate(489,243)"/>
<path d="M0 0 C0 0.66 0 1.32 0 2 C-0.97839844 1.95359375 -1.95679687 1.9071875 -2.96484375 1.859375 C-10.80284957 1.64357936 -17.11272493 1.81910673 -24 6 C-23.671875 4.109375 -23.671875 4.109375 -23 2 C-16.43146419 -2.17997733 -7.30861634 -2.43620545 0 0 Z " fill="#5D61B6" transform="translate(115,234)"/>
<path d="M0 0 C0.33 0 0.66 0 1 0 C1 10.56 1 21.12 1 32 C1.33 31.34 1.66 30.68 2 30 C2.99 30 3.98 30 5 30 C3.63016497 33.16115776 3.0109362 33.9927092 0 36 C0 24.12 0 12.24 0 0 Z " fill="#606AAF" transform="translate(469,321)"/>
<path d="M0 0 C0.75999011 2.27997034 1.06329448 3.71597266 0.53515625 6.0859375 C-0.19322196 10.05214295 -0.1447061 13.91417107 -0.125 17.9375 C-0.12886719 18.72318359 -0.13273437 19.50886719 -0.13671875 20.31835938 C-0.12945647 24.65757175 0.13591413 28.72757542 1 33 C-0.47729492 31.88085938 -0.47729492 31.88085938 -2 30 C-2.37231445 27.22851562 -2.37231445 27.22851562 -2.36328125 23.90625 C-2.36263672 22.71128906 -2.36199219 21.51632812 -2.36132812 20.28515625 C-2.34521484 19.03605469 -2.32910156 17.78695313 -2.3125 16.5 C-2.31572266 15.25089844 -2.31894531 14.00179688 -2.32226562 12.71484375 C-2.26700255 3.40050383 -2.26700255 3.40050383 0 0 Z " fill="#86539F" transform="translate(485,253)"/>
<path d="M0 0 C0.33 0 0.66 0 1 0 C1.19220988 5.47798158 0.81728511 9.75006524 -1 15 C-1.4021875 16.175625 -1.4021875 16.175625 -1.8125 17.375 C-3.50889536 19.69638312 -5.25223513 19.5486763 -8 20 C-7.50628906 19.05898438 -7.01257813 18.11796875 -6.50390625 17.1484375 C-5.85634068 15.8908464 -5.20922929 14.63302136 -4.5625 13.375 C-4.23701172 12.75753906 -3.91152344 12.14007813 -3.57617188 11.50390625 C-1.61740372 7.66714389 -0.46778742 4.28256092 0 0 Z " fill="#696BBD" transform="translate(282,376)"/>
<path d="M0 0 C8.25 0 16.5 0 25 0 C25 0.33 25 0.66 25 1 C24.03344482 1.06731323 24.03344482 1.06731323 23.04736328 1.13598633 C20.07227743 1.34986224 17.09877102 1.58108522 14.125 1.8125 C13.11179688 1.88275391 12.09859375 1.95300781 11.0546875 2.02539062 C4.36323921 2.56156437 -1.66020896 3.7880158 -8 6 C-8 5.34 -8 4.68 -8 4 C-4.91190305 2.23537317 -3.76687864 2 0 2 C0 1.34 0 0.68 0 0 Z " fill="#777BC6" transform="translate(217,319)"/>
<path d="M0 0 C0.33 0 0.66 0 1 0 C1 6.27 1 12.54 1 19 C1.66 19 2.32 19 3 19 C3 19.99 3 20.98 3 22 C-2.75 21.25 -2.75 21.25 -5 19 C-3.68 19 -2.36 19 -1 19 C-0.67 12.73 -0.34 6.46 0 0 Z " fill="#797DC1" transform="translate(220,260)"/>
<path d="M0 0 C2.79526294 2.41409072 3.9321217 4.46495458 5 8 C5.23769006 11.27536903 5.18862752 14.5307881 5.125 17.8125 C5.11597656 18.69615234 5.10695312 19.57980469 5.09765625 20.49023438 C5.07419637 22.66027359 5.03832865 24.83017247 5 27 C4.67 27 4.34 27 4 27 C3.67 21.06 3.34 15.12 3 9 C2.34 9 1.68 9 1 9 C0 2.25 0 2.25 0 0 Z " fill="#7274BF" transform="translate(250,347)"/>
<path d="M0 0 C0.33 0 0.66 0 1 0 C1.22634311 3.4157233 1.42792113 6.83247322 1.625 10.25 C1.68945312 11.21808594 1.75390625 12.18617188 1.8203125 13.18359375 C1.871875 14.11816406 1.9234375 15.05273438 1.9765625 16.015625 C2.02893066 16.87446289 2.08129883 17.73330078 2.13525391 18.61816406 C1.9870078 21.22879397 1.32298482 22.76943856 0 25 C-0.66 25 -1.32 25 -2 25 C-1.7525 23.78570312 -1.7525 23.78570312 -1.5 22.546875 C-0.91577268 18.40251243 -0.92837931 14.42548618 -1 10.25 C-1.13414634 2.26829268 -1.13414634 2.26829268 0 0 Z " fill="#5D5DAF" transform="translate(376,339)"/>
<path d="M0 0 C-1 3 -1 3 -4 5 C-8.7816512 6.71417684 -12.04762185 7.20789711 -17 6 C-14.18372735 4.51470552 -11.40632675 3.40569968 -8.375 2.4375 C-0.77202073 0 -0.77202073 0 0 0 Z " fill="#6668BB" transform="translate(265,404)"/>
<path d="M0 0 C0.33 0.66 0.66 1.32 1 2 C-0.78919813 6.67179512 -2.46616805 8.89124095 -7 11 C-8.98451771 11.71143088 -10.98202112 12.38991336 -13 13 C-13.66 12.34 -14.32 11.68 -15 11 C-14.33613281 10.70867187 -13.67226563 10.41734375 -12.98828125 10.1171875 C-7.27089599 7.46298529 -3.61767738 5.18533757 0 0 Z " fill="#6667BB" transform="translate(371,368)"/>
<path d="M0 0 C0.66 0.99 1.32 1.98 2 3 C-4.54201681 9.90546218 -4.54201681 9.90546218 -10.25 10.125 C-11.1575 10.08375 -12.065 10.0425 -13 10 C-10 8 -10 8 -7.0625 6.6875 C-3.76411141 4.87002057 -2.14596255 3.05386978 0 0 Z " fill="#6A6BBD" transform="translate(231,300)"/>
<path d="M0 0 C2.65291056 1.32645528 2.95217066 2.22370005 4 5 C4.29414765 7.6084792 4.50637617 10.13533311 4.625 12.75 C4.66367187 13.44738281 4.70234375 14.14476562 4.7421875 14.86328125 C4.83598624 16.57510818 4.91906174 18.28751682 5 20 C2.72742516 17.72742516 2.62554222 16.94668159 2.1484375 13.8671875 C2.01953125 13.06152344 1.890625 12.25585938 1.7578125 11.42578125 C1.63148438 10.58402344 1.50515625 9.74226562 1.375 8.875 C1.2409375 8.02550781 1.106875 7.17601562 0.96875 6.30078125 C0.63855014 4.20165356 0.31832741 2.10096089 0 0 Z " fill="#E15D74" transform="translate(534,243)"/>
<path d="M0 0 C4.6 2.2 4.6 2.2 6 5 C5.505 4.71125 5.01 4.4225 4.5 4.125 C1.08247965 2.58711584 -2.3506202 1.85152195 -6 1 C-6 1.66 -6 2.32 -6 3 C-6.99 3 -7.98 3 -9 3 C-9 4.32 -9 5.64 -9 7 C-9.99 7 -10.98 7 -12 7 C-9.74474194 0.40770721 -6.82050771 -0.5879748 0 0 Z " fill="#6B6CB9" transform="translate(109,245)"/>
<path d="M0 0 C0 3.53060249 -1.2632025 5.25275928 -3.04296875 8.21484375 C-4.22785306 10.42501571 -4.69941412 12.52016648 -5 15 C-6.5625 13.75 -6.5625 13.75 -8 12 C-7.62845719 8.34649567 -5.86422843 6.39734011 -3.4375 3.75 C-2.79683594 3.04359375 -2.15617187 2.3371875 -1.49609375 1.609375 C-0.75552734 0.81273437 -0.75552734 0.81273437 0 0 Z " fill="#6163B6" transform="translate(512,347)"/>
<path d="M0 0 C11.70615034 -0.55353075 11.70615034 -0.55353075 16 3 C14.0625 3.5625 14.0625 3.5625 12 4 C11.67 3.67 11.34 3.34 11 3 C9.15108054 2.76636119 7.29511969 2.58696365 5.4375 2.4375 C4.42558594 2.35371094 3.41367188 2.26992188 2.37109375 2.18359375 C1.19740234 2.09271484 1.19740234 2.09271484 0 2 C0 1.34 0 0.68 0 0 Z " fill="#5F61B5" transform="translate(232,341)"/>
<path d="M0 0 C-1.15173355 2.46800047 -2.04783565 4.04783565 -4 6 C-5.32 6 -6.64 6 -8 6 C-7.6875 4.125 -7.6875 4.125 -7 2 C-4 0 -4 0 0 0 Z " fill="#5B5CBF" transform="translate(479,345)"/>
<path d="M0 0 C0.66 0.33 1.32 0.66 2 1 C2 2.65 2 4.3 2 6 C4.31 6.33 6.62 6.66 9 7 C8.67 7.66 8.34 8.32 8 9 C2.62416107 8.40268456 2.62416107 8.40268456 0.0625 6.75 C-1 5 -1 5 -0.6875 2.3125 C-0.460625 1.549375 -0.23375 0.78625 0 0 Z " fill="#6567B4" transform="translate(190,292)"/>
<path d="M0 0 C2.91517292 1.07401108 4.77810176 1.77810176 7 4 C6.625 6.625 6.625 6.625 6 9 C5.67 7.68 5.34 6.36 5 5 C3.68 4.67 2.36 4.34 1 4 C1 3.34 1 2.68 1 2 C0.34 1.67 -0.32 1.34 -1 1 C-0.67 0.67 -0.34 0.34 0 0 Z " fill="#6466B8" transform="translate(214,289)"/>
<path d="M0 0 C0.66 0.33 1.32 0.66 2 1 C0.68139111 5.61513112 -1.21355437 9.09897612 -4 13 C-4.33 12.34 -4.66 11.68 -5 11 C-4.00390625 8.3984375 -4.00390625 8.3984375 -2.5625 5.375 C-2.08941406 4.37210937 -1.61632812 3.36921875 -1.12890625 2.3359375 C-0.75636719 1.56507813 -0.38382813 0.79421875 0 0 Z " fill="#7F80DD" transform="translate(605,437)"/>
<path d="M0 0 C0 3 0 3 -1.5 4.625 C-5.0002159 6.55011875 -8.02798992 6.66899916 -12 7 C-11.34 6.34 -10.68 5.68 -10 5 C-9.01 5 -8.02 5 -7 5 C-6.67 4.01 -6.34 3.02 -6 2 C-2.9375 0.8125 -2.9375 0.8125 0 0 Z " fill="#DE5E76" transform="translate(531,298)"/>
<path d="M0 0 C0.66 0.33 1.32 0.66 2 1 C1.01 2.485 1.01 2.485 0 4 C-0.66 4 -1.32 4 -2 4 C-2 4.66 -2 5.32 -2 6 C-8.96428571 9.34821429 -8.96428571 9.34821429 -13 8 C-12.39671875 7.75765625 -11.7934375 7.5153125 -11.171875 7.265625 C-6.70093996 5.39071676 -3.15166283 3.83680693 0 0 Z " fill="#6566B9" transform="translate(125,267)"/>
<path d="M0 0 C1.0528418 0.01353516 1.0528418 0.01353516 2.12695312 0.02734375 C3.85561525 0.05086296 5.58410145 0.08673287 7.3125 0.125 C7.3125 0.455 7.3125 0.785 7.3125 1.125 C5.86617187 1.32416016 5.86617187 1.32416016 4.390625 1.52734375 C2.49570312 1.79224609 2.49570312 1.79224609 0.5625 2.0625 C-0.69046875 2.23652344 -1.9434375 2.41054687 -3.234375 2.58984375 C-5.78732593 2.98549338 -8.2061291 3.42946422 -10.6875 4.125 C-10.6875 3.465 -10.6875 2.805 -10.6875 2.125 C-7.00662647 -0.32891569 -4.24394412 -0.10302759 0 0 Z " fill="#8053A1" transform="translate(510.6875,229.875)"/>
<path d="M0 0 C0.99 0.33 1.98 0.66 3 1 C3 1.66 3 2.32 3 3 C3.66 3 4.32 3 5 3 C5.125 9.625 5.125 9.625 4 13 C3.34 13 2.68 13 2 13 C2.04125 11.783125 2.0825 10.56625 2.125 9.3125 C2.13754508 5.78105873 1.59998217 3.19996434 0 0 Z " fill="#5D5CB8" transform="translate(230,287)"/>
<path d="M0 0 C1.32 0 2.64 0 4 0 C4.99 1.98 5.98 3.96 7 6 C3.09161134 6 1.88405893 4.49432124 -1 2 C-0.67 1.34 -0.34 0.68 0 0 Z " fill="#5E60BE" transform="translate(224,280)"/>
<path d="M0 0 C2.4178712 -0.10826289 4.83087556 -0.18739789 7.25 -0.25 C8.27287109 -0.30027344 8.27287109 -0.30027344 9.31640625 -0.3515625 C12.92181813 -0.4215705 14.64068812 -0.29151719 17.484375 2.015625 C17.98453125 2.67046875 18.4846875 3.3253125 19 4 C18.15179687 3.68289062 17.30359375 3.36578125 16.4296875 3.0390625 C12.90522775 1.97128768 9.79329043 1.59958921 6.125 1.375 C4.97257812 1.30023438 3.82015625 1.22546875 2.6328125 1.1484375 C1.32957031 1.07496094 1.32957031 1.07496094 0 1 C0 0.67 0 0.34 0 0 Z " fill="#6651B2" transform="translate(505,229)"/>
<path d="M0 0 C0.66 0.66 1.32 1.32 2 2 C2.99 2 3.98 2 5 2 C5 4.64 5 7.28 5 10 C2.59927045 7.11912454 0.52708963 4.43595166 -1 1 C-0.67 0.67 -0.34 0.34 0 0 Z " fill="#6161BC" transform="translate(512,368)"/>
<path d="M0 0 C0.66 0.33 1.32 0.66 2 1 C1.34 4.3 0.68 7.6 0 11 C-0.66 11 -1.32 11 -2 11 C-2 7.7 -2 4.4 -2 1 C-1.34 0.67 -0.68 0.34 0 0 Z " fill="#565AB5" transform="translate(177,288)"/>
<path d="M0 0 C0.33 0 0.66 0 1 0 C1.66 4.62 2.32 9.24 3 14 C1.68 13.34 0.36 12.68 -1 12 C-0.67 8.04 -0.34 4.08 0 0 Z " fill="#7376C2" transform="translate(84,252)"/>
<path d="M0 0 C0.99 0.33 1.98 0.66 3 1 C1.90716423 2.03295436 0.80029421 3.05107835 -0.3125 4.0625 C-0.92738281 4.63097656 -1.54226562 5.19945312 -2.17578125 5.78515625 C-2.77777344 6.18605469 -3.37976563 6.58695312 -4 7 C-4.99 6.67 -5.98 6.34 -7 6 C-6.67 5.34 -6.34 4.68 -6 4 C-5.34 4 -4.68 4 -4 4 C-4 3.34 -4 2.68 -4 2 C-2.68 2 -1.36 2 0 2 C0 1.34 0 0.68 0 0 Z " fill="#6262BA" transform="translate(205,325)"/>
<path d="M0 0 C0.66 0 1.32 0 2 0 C0.92598892 2.91517292 0.22189824 4.77810176 -2 7 C-4.625 6.625 -4.625 6.625 -7 6 C-7 5.67 -7 5.34 -7 5 C-5.35 5 -3.7 5 -2 5 C-1.855625 4.360625 -1.71125 3.72125 -1.5625 3.0625 C-1 1 -1 1 0 0 Z " fill="#684EAE" transform="translate(517,280)"/>
<path d="M0 0 C0.66 0.33 1.32 0.66 2 1 C2.08096803 2.45742463 2.13917774 3.91612807 2.1875 5.375 C2.22230469 6.18710937 2.25710937 6.99921875 2.29296875 7.8359375 C2.19628906 8.55007813 2.09960938 9.26421875 2 10 C1.01 10.66 0.02 11.32 -1 12 C-0.67 8.04 -0.34 4.08 0 0 Z " fill="#6A6BB9" transform="translate(115,250)"/>
<path d="M0 0 C0.66 0.33 1.32 0.66 2 1 C0 5 -2 9 -4 13 C-4.45732667 7.28341664 -3.52273754 4.51350747 0 0 Z " fill="#6F4FAA" transform="translate(489,240)"/>
<path d="M0 0 C0.66 0.66 1.32 1.32 2 2 C0.77472971 6.05281712 -0.69880494 9.44360764 -3 13 C-4 11 -4 11 -3.22265625 8.3984375 C-2.83980469 7.40070313 -2.45695313 6.40296875 -2.0625 5.375 C-1.68222656 4.37210937 -1.30195312 3.36921875 -0.91015625 2.3359375 C-0.60980469 1.56507813 -0.30945313 0.79421875 0 0 Z " fill="#8787E1" transform="translate(610,424)"/>
<path d="M0 0 C0.33 0 0.66 0 1 0 C3.14285714 7.42857143 3.14285714 7.42857143 4 11 C4.66 11 5.32 11 6 11 C5.67 11.66 5.34 12.32 5 13 C0.17970402 9.14376321 0.17970402 9.14376321 -0.33203125 5.88671875 C-0.3145776 3.92143786 -0.16596091 1.95833873 0 0 Z " fill="#6F72BF" transform="translate(96,252)"/>
<path d="M0 0 C4.5220607 2.26103035 5.22520129 3.42288753 7 8 C6.67 8.99 6.34 9.98 6 11 C4.02 7.37 2.04 3.74 0 0 Z " fill="#6A6CBC" transform="translate(519,382)"/>
<path d="M0 0 C0.33 0 0.66 0 1 0 C1.28571429 8.57142857 1.28571429 8.57142857 -1 12 C-1.66 12 -2.32 12 -3 12 C-2.67 10.02 -2.34 8.04 -2 6 C-1.34 6 -0.68 6 0 6 C0 4.02 0 2.04 0 0 Z " fill="#5F60BC" transform="translate(377,352)"/>
<path d="M0 0 C1.12377697 3.30435084 0.89554742 5.0506862 -0.4375 8.25 C-0.72496094 8.95640625 -1.01242187 9.6628125 -1.30859375 10.390625 C-1.53675781 10.92171875 -1.76492188 11.4528125 -2 12 C-2.33 12 -2.66 12 -3 12 C-3.34833144 7.12335991 -2.41685712 4.22949995 0 0 Z " fill="#C55F88" transform="translate(489,243)"/>
<path d="M0 0 C0.66 0.33 1.32 0.66 2 1 C2 2.98 2 4.96 2 7 C0.02 7.99 0.02 7.99 -2 9 C-1.34 6.03 -0.68 3.06 0 0 Z " fill="#7171D7" transform="translate(620,392)"/>
<path d="M0 0 C0.33 0 0.66 0 1 0 C0.25 7.625 0.25 7.625 -2 11 C-2.28571429 3.57142857 -2.28571429 3.57142857 0 0 Z " fill="#8788E1" transform="translate(7,242)"/>
<path d="M0 0 C0 3.25811062 -0.5522078 5.10441559 -2 8 C-2.99 8.33 -3.98 8.66 -5 9 C-3.7508258 5.54074837 -2.32472205 2.85306797 0 0 Z " fill="#B75E8C" transform="translate(537,289)"/>
</svg>
